<svg width="93" height="264" viewBox="0 0 93 264" fill="none" xmlns="http://www.w3.org/2000/svg">
<path d="M68.6868 244.512C68.9783 243.725 69.101 242.912 69.0601 242.104C69.0447 241.797 69.014 241.491 68.9885 241.184L68.9373 240.586C68.8249 238.99 68.7073 237.4 68.5846 235.805C68.3034 232.022 68.0119 228.111 67.8177 224.266C67.6438 220.84 67.8535 217.466 68.1142 213.723C68.2471 211.811 68.4363 209.909 68.6204 208.002C68.8504 205.62 69.0907 203.15 69.2288 200.696C69.3924 197.756 69.6071 194.816 69.8167 191.882C70.0264 188.993 70.236 186.11 70.3996 183.221C70.6143 179.422 70.9875 175.557 71.3454 171.82C71.6727 168.384 72.0101 164.831 72.235 161.308C72.3373 159.682 72.5367 158.005 72.731 156.384C72.8997 154.948 73.0684 153.516 73.186 152.074C73.3803 149.635 73.4621 147.197 73.4365 144.814L73.4263 143.7C73.4007 141.205 73.3701 138.628 73.0684 136.041C72.915 134.752 72.8332 133.464 72.7463 132.104C72.6492 130.596 72.552 129.036 72.3475 127.477C71.6931 122.456 70.507 117.574 69.4537 113.386C69.1725 112.277 68.7328 111.275 68.3034 110.303L68.0068 109.618C67.608 108.688 67.199 107.767 66.79 106.847L66.1202 105.339C65.8953 104.838 65.6754 104.332 65.4607 103.821C65.4096 103.703 65.3636 103.585 65.3175 103.468C78.5083 99.5105 82.9973 95.7629 83.3296 87.8535C84.2141 86.9792 85.0628 86.1254 85.8093 85.3636C88.2072 82.9146 88.5548 82.4238 88.6878 82.2398C89.0048 81.7847 89.3269 81.3399 89.6541 80.9002C90.2216 80.1179 90.7891 79.3409 91.3157 78.5331C93.6062 75.0104 92.6143 72.1523 91.3822 70.3679C90.876 69.6368 90.3852 68.9006 89.8892 68.1643L89.7461 67.9496C89.971 66.6715 89.8432 65.1274 89.4956 64.0537C88.3708 60.5106 79.4849 55.1934 79.1065 54.9684C78.4163 54.5594 76.5502 53.2455 71.8056 49.0633C69.9599 46.6654 68.1551 44.9782 66.1509 43.7614C65.9822 43.6591 65.8084 43.5621 65.6294 43.47L62.9657 42.294C62.1732 42.0281 61.3654 41.834 60.5269 41.701C57.7047 41.2511 55.0103 40.3717 52.1574 39.436L51.5132 39.2263C51.0122 39.0627 50.3782 39.0117 49.3301 38.9452C49.5908 38.7049 49.8414 38.4391 50.0612 38.1324C52.9448 34.2007 53.5685 30.5808 54.2332 26.7514L54.3866 25.8771C54.7802 25.7135 55.1126 25.458 55.3733 25.1257C55.6443 24.7678 55.7977 24.3893 55.8539 23.9803C55.9255 23.4281 55.813 22.8812 55.5472 22.421C55.5062 22.3494 55.4551 22.2727 55.404 22.2011C55.4091 22.1397 55.4142 22.0783 55.4193 22.0119C55.5062 20.9484 55.5778 19.8032 55.4296 18.6324C55.2915 17.5588 55.2813 16.485 55.2966 15.58C55.3529 11.2547 53.1493 8.81603 50.685 6.49997C47.0498 3.07956 44.1407 1.91896 38.9922 0.61011C38.4605 0.47718 37.8674 0.410645 37.1772 0.410645C36.4205 0.410645 35.6638 0.492598 35.0861 0.564176C32.9899 0.824924 31.6503 1.22361 29.9478 1.72976L28.961 2.0211C26.5069 2.73688 24.1704 3.58068 22.5497 5.80471C21.1846 5.83538 19.9627 6.36712 19.0168 7.34876C17.8869 8.51957 17.7642 9.88958 17.7182 10.8508C17.4063 10.8968 17.1302 10.9736 16.8644 11.0809C15.3408 11.6842 14.2518 13.2027 14.1546 14.8541C14.124 15.3807 14.1955 15.8971 14.3591 16.3981C13.6178 17.3695 13.3877 18.6222 13.7405 19.9106C13.9552 20.7082 14.3489 21.3269 14.7375 21.879L14.8551 22.0426C14.763 22.6459 14.8755 23.2389 15.1618 23.7399C15.1414 23.9904 15.1363 24.2308 15.1414 24.4711C15.2385 29.7116 17.9636 31.9408 21.5118 34.3131C22.156 34.7425 22.8104 35.0903 23.4393 35.4277C23.7614 35.5965 24.0835 35.7702 24.4005 35.9542C24.4414 36.1434 24.3903 36.5015 24.2676 36.6293C22.9843 37.9279 21.4607 38.6231 19.5997 38.756L19.0526 38.7919C18.0352 38.8533 16.982 38.9197 15.9032 39.2111C11.3529 40.433 7.82509 42.8411 5.417 46.3689C4.40468 47.8516 3.14184 49.7024 2.13464 51.6299C0.55481 54.6566 0.104892 57.893 0.851348 60.9811L0.902475 61.1601C2.16532 73.5277 2.4414 78.9777 2.29313 79.8826C2.1602 80.4859 1.99148 80.977 1.81254 81.4933C1.38307 82.7408 0.943377 84.0292 1.26548 86.2788C1.60292 88.6306 3.16229 90.3024 4.24619 91.2023L4.22574 91.5705C4.15927 92.6953 4.09792 93.8251 4.06213 94.9499C3.86785 101.223 4.2922 106.714 5.37099 111.735C5.68286 113.182 5.89248 113.724 6.27594 114.711C6.3833 114.997 6.74631 115.953 6.74631 115.953C7.11953 116.965 7.29848 117.477 7.27292 118.105C7.23713 118.842 7.19111 119.649 7.13999 120.508C6.8639 125.105 6.51623 130.831 7.78419 134.814C8.14208 135.933 8.3108 137.166 8.49485 138.469L8.55109 138.868C8.9141 141.44 10.361 142.585 11.5114 143.096C11.8181 143.229 12.0226 143.383 12.3192 144.385C12.7742 145.908 13.2446 147.432 13.7149 148.95C14.4154 151.215 15.1209 153.48 15.7651 155.76C16.1384 157.085 16.5627 158.394 16.9922 159.702C17.6926 161.85 18.3522 163.874 18.7867 165.971L18.8379 166.211C19.5383 169.585 20.2643 173.072 20.8625 176.508C21.1642 178.246 21.1335 179.985 20.7705 181.672C20.5762 182.587 19.7224 186.631 19.7224 186.631L20.433 186.841C20.0394 187.863 19.6099 188.855 19.1242 189.796L19.0015 190.036L18.3522 193.088C17.9227 195.118 17.4881 197.148 17.0689 199.183C16.5474 201.693 16.0617 204.209 15.576 206.724L14.9829 209.802L14.5176 212.149C14.1342 214.061 13.7507 215.978 13.4235 217.905C13.1883 219.271 12.9225 220.636 12.6566 221.996C12.1402 224.634 11.6085 227.364 11.3068 230.13C11.0972 232.068 10.8365 234.138 10.3866 236.168C9.95198 238.142 9.86506 240.074 9.78837 241.945C9.75258 242.83 9.71679 243.71 9.63499 244.589C9.59409 245.085 9.62988 245.535 9.66566 245.898L9.67589 246.046C9.97243 249.584 11.8437 251.895 15.2436 252.923C15.7702 253.086 16.2917 253.168 16.7468 253.245C17.0126 253.291 17.2836 253.331 17.5444 253.393C19.3389 253.822 21.1335 254.262 22.9178 254.732C23.0098 255.095 23.0968 255.458 23.1837 255.821C23.2706 256.19 23.3575 256.552 23.4495 256.921C24.2931 260.275 26.9364 262.361 30.3466 262.361C30.6073 262.361 30.8732 262.35 31.1442 262.325C33.3273 262.12 34.9583 261.333 36.1291 259.927C36.2518 259.774 36.3898 259.63 36.5279 259.487C36.8244 259.17 37.1618 258.812 37.4635 258.368C37.6169 258.137 37.7498 258.03 38.123 257.994L38.2662 257.984C38.7723 257.943 39.4012 257.897 40.0454 257.687C40.7407 257.457 41.6048 257.105 42.2285 256.358C42.2285 256.358 42.4995 256.021 42.5302 255.985C43.2715 256.082 43.4454 256.169 43.5272 256.322C45.3422 259.707 48.466 261.174 51.2474 262.284C52.4131 262.749 53.6145 263.092 54.6524 263.373C55.1432 263.506 55.6341 263.577 56.1249 263.577C57.6689 263.577 59.08 262.902 60.1128 261.681C61.4574 260.09 61.7642 257.994 60.9411 256.077C60.6343 255.366 60.2611 254.732 59.9032 254.124L59.6578 253.705C59.6731 253.689 59.8725 253.485 59.8725 253.485C60.5423 252.831 60.7928 252.064 60.9769 251.506C61.0126 251.399 61.0587 251.256 61.0944 251.164C61.4932 250.934 61.9176 250.729 62.3419 250.53C62.7356 250.341 63.1293 250.151 63.5128 249.942C64.5609 249.379 65.4863 248.684 66.3145 247.886C67.9608 246.47 68.6868 244.512 68.6868 244.512Z" fill="#E6D9C2"/>
<path d="M38.2041 22.2574C39.3289 22.0836 40.4537 21.925 41.5887 21.8228C42.6011 21.7307 43.5674 22.012 44.5132 22.329C44.7075 22.3955 44.912 22.5285 45.0092 22.687C45.1012 22.8353 45.0961 23.0653 45.0603 23.2442C45.0398 23.3363 44.8762 23.4384 44.7586 23.4742C44.6308 23.5151 44.4774 23.5048 44.3394 23.4844C44.0224 23.4384 43.7872 23.4794 43.7565 23.8321C43.7361 24.0878 43.777 23.73 43.6696 23.955C43.5111 24.2975 43.0919 24.282 42.7544 24.3689C42.1205 24.5274 41.4865 24.4918 40.8474 24.3589C39.8913 24.2413 40.0396 23.8936 40.0396 23.8936C40.0294 23.5408 39.9322 23.188 39.5488 23.2135C39.4772 23.2186 39.4107 23.2391 39.3392 23.2545C38.9097 23.3516 38.4802 23.6378 38.0917 23.3668C37.8258 23.1828 37.7491 22.9273 37.8156 22.6768C37.8565 22.5132 38.0507 22.283 38.2041 22.2574Z" fill="#281011"/>
<path d="M45.8274 31.716C45.8938 31.7415 45.9552 31.7877 46.0063 31.8388C46.0319 31.8286 46.0523 31.8183 46.083 31.8183C46.4971 31.7723 46.5636 31.6599 46.9777 31.7519C47.1925 31.803 47.4021 31.9206 47.5606 32.0944C47.7446 32.2887 48.2661 33.1323 48.2559 33.2448C48.2099 33.6385 48.0872 33.6896 47.6679 33.6078C47.2794 33.5311 46.8959 33.4492 46.5022 33.4083C46.308 33.3879 46.1137 33.3776 45.9143 33.3776C45.8887 33.3776 45.8683 33.3776 45.8529 33.3776C45.8018 33.3827 45.7507 33.388 45.6996 33.3931C45.6024 33.4033 45.5104 33.4237 45.4183 33.439C44.5901 33.6128 43.9663 33.9861 43.133 33.5771C42.7444 33.3828 42.6626 32.9277 42.6626 32.9277C43.9101 32.938 45.0144 31.4348 45.8274 31.716Z" fill="#281011"/>
<path d="M44.2983 33.9909C44.3034 33.9909 44.3034 33.9959 44.3085 33.9959C45.2442 34.1902 46.2054 34.2057 47.1665 34.0217C47.3199 33.991 47.458 34.1494 47.4631 34.3028C47.4682 34.4715 47.0541 34.7272 47.0183 34.7476C46.0571 35.2435 44.9425 35.1565 44.0785 34.6043C43.7308 34.4152 43.8791 34.1802 43.8791 34.1802C43.9813 33.899 44.2983 33.9909 44.2983 33.9909Z" fill="#281011"/>
<path d="M54.7236 113.975C54.7294 113.969 54.7352 113.969 54.741 113.969C54.741 113.969 54.7352 113.969 54.7352 113.975C54.7352 113.969 54.7294 113.969 54.7236 113.975Z" fill="#281011"/>
<path d="M11.6183 244.446C11.5876 244.814 11.6285 245.187 11.6592 245.56C11.8841 248.265 13.1674 249.875 15.8005 250.668C16.5112 250.882 17.2678 250.934 17.9938 251.108C19.9213 251.573 21.8437 252.043 23.7559 252.554C24.2467 252.682 24.6199 253.06 24.758 253.567C24.988 254.405 25.1619 255.259 25.3766 256.102C26.0361 258.715 28.1272 260.254 30.929 259.988C32.335 259.855 33.603 259.451 34.5437 258.311C34.9374 257.836 35.418 257.417 35.7605 256.905C36.2922 256.118 36.9978 255.729 37.9232 255.653C38.4191 255.612 38.9304 255.586 39.3957 255.433C39.8456 255.285 40.3569 255.075 40.6483 254.732C41.134 254.155 41.497 253.51 42.3968 253.608C43.5318 253.735 44.6566 253.889 45.2702 255.029C46.7273 257.744 49.2836 259.001 51.9627 260.075C52.9955 260.489 54.0743 260.801 55.153 261.093C56.4823 261.456 57.6941 261.042 58.5274 260.045C59.3608 259.058 59.5858 257.785 59.0489 256.537C58.7064 255.745 58.236 255.008 57.8065 254.257C57.4077 253.562 57.2135 252.887 57.8935 252.237C58.0724 252.069 58.2462 251.89 58.4201 251.711C59.1461 251 58.962 249.732 59.8823 249.175C60.7259 248.664 61.6564 248.29 62.5307 247.82C63.9725 247.043 65.1842 246.005 66.1403 244.655C66.2016 244.568 66.2476 244.481 66.2988 244.394C66.2988 244.389 66.2936 244.389 66.2936 244.389C62.3926 235.319 60.547 225.569 59.5449 215.773C58.5223 205.763 58.3178 195.691 57.5151 185.66C56.692 175.409 55.1121 165.306 51.7173 155.581C49.8921 150.351 47.714 145.254 45.5514 140.162C43.3376 134.937 41.1186 129.716 38.8997 124.496C36.8393 119.644 34.8556 114.751 32.6418 109.971C30.5813 105.523 28.2551 101.141 25.1874 97.3068C24.7528 96.7648 24.2978 96.2382 23.8377 95.7218C22.7896 102.179 22.0738 108.688 21.7057 115.217C21.3324 121.838 21.3069 128.479 21.629 135.105C21.9562 141.757 22.7231 148.352 23.5974 154.953C24.4512 161.379 25.259 167.872 24.8858 174.371C24.5688 179.898 23.4082 185.45 20.8774 190.394C20.2537 193.349 19.6146 196.304 19.0062 199.264C18.275 202.792 17.6155 206.33 16.9253 209.863C16.4038 212.547 15.8363 215.221 15.3761 217.916C14.6808 221.955 13.7247 225.938 13.2748 230.023C13.0447 232.119 12.7738 234.225 12.3187 236.275C11.7308 238.985 11.8535 241.726 11.6183 244.446ZM51.7684 254.732C51.8502 254.661 51.9269 254.528 52.0343 254.508C52.6785 254.38 53.2664 254.492 53.5988 255.121C53.6857 255.284 53.5937 255.561 53.5374 255.77C53.517 255.847 53.3534 255.919 53.246 255.924C52.5558 255.985 52.0956 255.622 51.7735 255.06C51.7326 254.978 51.7684 254.845 51.7684 254.732ZM29.477 254.763C29.4821 254.692 29.6662 254.64 29.8502 254.538L31.0261 255.423C30.9597 255.597 30.6529 255.821 30.4842 255.791C30.1519 255.734 29.8144 255.561 29.5435 255.351C29.431 255.269 29.4565 254.963 29.477 254.763Z" fill="#281011"/>
<path d="M2.77829 60.1778C2.79874 60.2699 2.83453 60.3569 2.85498 60.449C3.46339 66.3899 4.60353 78.2515 4.2303 79.9592C3.72925 82.2496 2.84987 83.0472 3.22821 85.6598C3.60144 88.2673 6.27538 89.8879 6.2805 89.893C6.19869 91.4882 6.09133 93.0885 6.0402 94.6837C5.86637 100.175 6.14757 105.604 7.30304 110.983C7.67116 112.68 7.8501 112.916 8.51987 114.726C8.94933 115.881 9.29189 116.735 9.24076 117.87C9.03625 122.354 8.27446 129.527 9.66 133.873C10.1099 135.284 10.294 136.787 10.5036 138.259C10.6723 139.466 11.1836 140.437 12.2828 140.918C13.4536 141.434 13.8831 142.365 14.2154 143.474C15.3505 147.283 16.5928 151.061 17.6716 154.881C18.6482 158.342 19.9877 161.701 20.7239 165.229C21.455 168.757 22.1913 172.284 22.8099 175.833C23.1525 177.796 23.1269 179.785 22.7025 181.763C22.3498 183.415 22.0072 185.066 21.6595 186.723C22.9479 183.282 23.6791 179.626 24.0012 175.96C24.5584 169.585 23.8938 163.184 23.0758 156.859C22.2219 150.254 21.3477 143.663 20.9591 137.007C20.5705 130.416 20.5296 123.806 20.8313 117.21C21.1329 110.646 21.7771 104.096 22.7588 97.598C22.8815 96.78 23.0144 95.9618 23.1473 95.1438C23.1576 95.0875 23.178 95.0467 23.1985 95.0109C23.086 94.8882 22.9735 94.7654 22.861 94.6427C22.8048 94.5814 22.7741 94.515 22.7639 94.4485C22.5082 94.1775 22.3446 93.7683 22.2015 93.1344C21.5777 90.3684 21.1636 88.9778 21.3477 88.2007C20.6881 86.6259 19.9212 84.7242 19.5173 83.4869C18.9396 81.7128 18.2391 80.4396 17.5694 79.2075C17.1092 78.3741 16.6798 77.5868 16.3219 76.7023C16.2094 76.4262 16.1071 76.1911 16.01 75.9763C15.5038 74.8157 15.2226 74.1766 15.1153 71.3237C14.9823 67.9391 15.647 64.7691 15.7697 64.2118V62.8468C15.7697 62.4531 16.0867 62.1361 16.4804 62.1361C16.874 62.1361 17.191 62.4531 17.191 62.8468V64.2885L17.1706 64.4523C17.1604 64.488 16.3986 67.8165 16.5315 71.2675C16.6286 73.8495 16.8536 74.3656 17.3086 75.3984C17.4058 75.6234 17.5131 75.8689 17.6307 76.1603C17.9579 76.9681 18.3721 77.7198 18.8118 78.5224C19.4815 79.7495 20.2433 81.1401 20.8671 83.042C21.225 84.131 21.8896 85.8029 22.498 87.2702C23.2803 87.0555 24.4818 86.9073 26.2712 86.5647C27.488 86.3296 28.71 86.1198 29.9421 85.9511C30.9902 85.808 32.0383 85.6751 33.0865 85.5422C32.4065 83.8703 30.8675 80.0103 30.4841 78.4049C29.983 76.3291 30.2693 72.6837 32.0332 70.3216C33.7971 67.9596 41.1083 66.6863 41.1083 66.6863C41.1083 66.6863 41.4509 66.5791 41.9826 66.4052C44.7843 65.398 51.7836 62.6985 51.7836 62.6985C51.8757 62.6576 51.9677 62.6168 52.0546 62.5759C53.4197 61.9317 54.7644 61.8037 56.2726 61.7628C57.198 61.7373 57.3667 61.7219 57.7093 61.7424C57.3105 61.2924 56.9117 60.8477 56.5691 60.4744C56.0323 59.8916 56.9373 59.043 57.4741 59.6259C58.149 60.3621 58.7727 61.1341 59.4169 61.8959C59.7237 61.9215 60.0816 61.952 60.5162 61.9878C60.8178 62.0133 66.6514 61.8855 69.1362 61.635C73.4411 61.1953 77.0353 62.4786 79.5201 65.5769V68.1128C79.5201 68.3429 79.6326 68.5269 79.7962 68.6548V68.6805C79.7962 68.6958 79.8064 68.7111 79.8064 68.7264C79.4383 69.0587 79.0651 69.3859 78.697 69.7182C78.6714 69.5342 78.6254 69.34 78.6561 68.9923C78.7583 67.8573 78.789 66.7376 78.6049 65.6129C78.3646 64.1404 77.4495 63.2864 76.0537 63.0205C75.1232 62.8467 74.3869 63.3735 73.4513 63.215C72.1987 63.0003 70.6393 62.8978 69.3305 63.2455C68.7323 63.404 67.3519 63.3939 66.7332 63.3888C63.3997 63.3479 60.7922 63.6342 57.469 63.4092C55.2449 63.2559 53.1999 63.6292 51.2008 64.4932C46.9521 66.3389 42.6728 68.1129 38.3116 69.6825C37.2482 70.066 36.1643 70.3932 35.1213 70.8227C34.5027 71.0783 33.9096 71.4362 33.3728 71.835C32.5138 72.4792 32.0281 73.3687 32.0281 74.4577C32.0332 75.3013 32.0026 76.1756 32.2071 76.9834C32.6723 78.8444 33.2654 80.6748 33.8278 82.5103C33.9096 82.7761 34.0937 83.0114 34.1959 83.2722C34.8759 84.9952 36.241 85.7109 37.9895 85.9461C41.7985 86.4625 45.6024 87.0452 49.4165 87.5411C50.9247 87.7354 52.4585 87.7661 54.0077 87.8684C55.6233 87.7099 57.2542 87.536 58.8852 87.3928C59.1766 87.3672 59.9793 87.2906 60.8178 87.1679C60.2247 88.0524 59.5601 88.8654 58.7932 89.6221C58.0263 89.5403 57.2185 89.4687 57.06 89.4431C56.6203 89.3664 56.155 89.3664 55.7102 89.4022C53.1027 89.5914 50.5157 89.3817 47.9389 88.9983C45.3161 88.6046 42.6932 88.1803 40.0653 87.8224C39.2473 87.71 38.4088 87.5002 37.6265 87.6996C37.5141 91.0024 37.5345 90.5986 37.4425 93.1703C37.422 93.8452 37.4578 94.525 37.4527 95.1999C37.4476 96.4525 38.0662 97.3678 39.0786 97.9967C39.6921 98.375 40.3823 98.6562 41.0725 98.8914C42.6779 99.4487 44.3344 99.781 46.0165 100.011C47.1822 100.17 48.3735 100.328 49.5596 100.492C49.3193 101.028 49.0637 101.565 48.808 102.097C48.67 102.061 48.532 102.02 48.3121 101.995C47.264 101.852 47.0237 101.801 46.4511 101.668C44.1197 101.126 43.588 101.126 41.7832 100.706C41.4202 100.625 40.8987 100.502 40.551 100.379C39.7534 100.098 39.5336 99.8832 38.5571 99.556C38.3219 99.4793 38.0202 99.2442 37.8464 99.1163C35.4639 97.4189 36.5784 93.9575 35.2798 94.0496C33.7767 94.1518 32.2991 94.4586 30.8675 94.6682C30.9493 94.6989 31.0311 94.7298 31.1129 94.7655C32.3911 95.3177 33.5824 96.0744 34.6203 97.0151C35.7706 98.0581 36.6807 99.3363 37.5141 100.645C38.2656 101.821 38.9916 103.023 39.7228 104.214C39.7739 104.245 39.8199 104.285 39.8557 104.352C40.1011 104.781 40.3465 105.206 40.5919 105.635C40.8424 106.075 40.1829 106.458 39.9221 106.029C39.099 104.684 38.2759 103.34 37.4476 101.99C36.6807 100.742 35.8984 99.4946 34.9117 98.4056C33.2961 96.6162 31.1487 95.4147 28.8276 94.8574C28.3776 94.8676 27.938 94.8626 27.5034 94.8115C26.6444 94.8524 26.1485 94.8729 25.6526 94.8934C25.2793 94.9087 24.9061 94.9291 24.5329 94.9291C24.3948 94.9291 24.2772 94.9239 24.1545 94.9188C30.5301 101.969 34.0374 111.075 37.7135 119.736C39.9477 125.002 42.1871 130.273 44.4213 135.539C46.5584 140.575 48.7467 145.591 50.7253 150.688C52.6579 155.663 54.3349 160.74 55.5108 165.955C56.5998 170.802 57.3156 175.73 57.8269 180.674C58.875 190.736 59.0795 200.865 59.8771 210.942C60.6695 220.901 62.0653 230.912 65.5062 240.335C65.8896 241.393 66.314 242.436 66.7537 243.474C66.9377 242.968 67.0349 242.441 67.0042 241.868C66.9786 241.372 66.9173 240.876 66.8815 240.381C66.498 234.93 66.0379 229.48 65.7618 224.02C65.5829 220.431 65.8078 216.837 66.0634 213.237C66.3702 208.896 66.9326 204.576 67.1729 200.241C67.5001 194.407 68.0114 188.589 68.3437 182.76C68.763 175.434 69.7139 168.153 70.1792 160.832C70.3735 157.739 70.8847 154.661 71.1301 151.568C71.3193 149.216 71.4011 146.849 71.3756 144.492C71.3398 141.639 71.3551 138.781 71.0177 135.928C70.6802 133.095 70.6751 130.232 70.3019 127.39C69.6935 122.691 68.6096 118.105 67.449 113.534C67.1473 112.343 66.5901 111.208 66.1044 110.068C65.5215 108.708 64.9131 107.363 64.3149 106.008C64.0593 105.431 63.8036 104.848 63.5582 104.265C63.2668 103.585 63.0316 102.869 62.8629 102.148C62.7811 101.796 62.7197 101.448 62.7044 101.12L62.8067 101.703C77.3881 98.0785 81.8873 93.5742 81.4885 86.4419C82.5008 85.4449 83.4773 84.4634 84.3209 83.6045C85.7014 82.1933 86.7341 81.0941 86.9847 80.731C87.8385 79.5091 88.7588 78.328 89.5717 77.0805C90.8294 75.1479 91.0595 73.1694 89.674 71.1652C88.9428 70.112 88.2373 69.0382 87.5215 67.9747C87.5215 67.9747 88.1555 66.2978 87.5215 64.309C86.8875 62.3201 81.3709 58.3374 78.0272 56.3486C76.4167 55.3925 73.1906 52.6622 70.2763 50.0905C68.7732 48.117 67.0962 46.3686 65.0562 45.1313C64.8466 45.0035 64.6217 44.8909 64.4069 44.7733C64.3967 44.7682 64.3711 44.7376 64.3711 44.7376V44.7478C63.1083 44.0781 61.7228 43.577 60.1634 43.3316C56.9577 42.8203 53.9054 41.7823 50.8378 40.7802C50.0146 40.5144 46.221 40.6577 45.6228 39.9522C45.4081 39.7017 45.2752 39.2005 45.3263 38.8273C45.2752 38.541 45.9552 38.2648 45.9552 38.2648C46.6198 37.9734 47.719 37.4826 48.3837 36.5725C51.3133 32.5744 51.6507 29.0007 52.4534 24.5833C52.6068 23.75 52.9289 23.7498 53.1129 23.7395C53.2561 23.7344 53.3941 23.6886 53.5322 23.6579C53.614 23.6426 53.6856 23.5812 53.7367 23.5198C53.7776 23.4636 53.8032 23.4074 53.8134 23.3359C53.8236 23.2489 53.8083 23.1618 53.7674 23.0902C53.7367 23.034 53.6805 22.9882 53.6293 22.9524C53.5015 22.8604 53.3737 22.7682 53.2459 22.6711C53.2868 22.2774 53.3328 21.8889 53.3635 21.4952C53.4453 20.5085 53.5066 19.5012 53.3839 18.5247C53.2408 17.4101 53.2203 16.316 53.2356 15.1912C53.2817 11.8322 51.7325 9.94042 49.258 7.60902C45.8529 4.40335 43.138 3.39612 38.4548 2.20997C37.5141 1.96967 36.2614 2.09238 35.2951 2.20997C32.9995 2.49628 31.6907 2.96165 29.482 3.60074C26.6649 4.41877 24.7323 5.26225 23.5717 7.56808C22.4571 7.32778 21.3272 7.45553 20.4274 8.39116C19.5531 9.29611 19.7627 10.416 19.6349 11.5459C19.594 11.9089 19.4969 12.3997 19.093 12.507C18.8373 12.5735 18.4897 12.4456 18.2289 12.4559C17.9988 12.4661 17.779 12.5174 17.5643 12.5992C16.7513 12.9213 16.1787 13.7444 16.1276 14.6135C16.102 15.0941 16.235 15.5285 16.4906 15.9324C16.5775 16.0653 16.8792 16.3467 16.9252 16.5206C16.8996 16.5308 16.8843 16.541 16.8383 16.5767C16.736 16.6228 16.6389 16.6738 16.5366 16.7198C15.6777 17.2004 15.3862 18.0799 15.647 19.0155C15.785 19.5166 16.056 19.941 16.3474 20.3551C16.6542 20.7897 17.0683 21.2701 16.8536 21.8223C16.69 22.2466 16.9149 22.5484 17.237 22.6813C17.1604 23.1363 17.1143 23.6017 17.1194 24.0823C17.1961 28.2798 19.1696 29.9875 22.5952 32.2729C23.5257 32.8915 24.5482 33.3568 25.5145 33.9243C26.6547 34.594 26.67 36.6696 25.6628 37.6819C24.0165 39.3538 22.0328 40.2384 19.6963 40.402C18.5868 40.4787 17.4467 40.5094 16.3832 40.7957C12.5487 41.8234 9.31234 43.8121 7.04229 47.1404C5.92261 48.7816 4.79781 50.4382 3.88264 52.197C2.59423 54.7175 2.11875 57.417 2.77829 60.1778ZM22.9326 9.03549C22.7997 9.35759 22.6719 9.67453 22.5492 10.0069C22.089 11.2544 22.1197 12.6911 22.0123 14.0511C21.951 14.8487 21.7056 15.4826 21.092 15.9938C19.7218 17.134 18.7402 18.5247 18.0397 20.1352C17.9324 19.9511 17.8199 19.7774 17.7023 19.6087C17.4876 19.3019 17.1143 18.8621 17.1143 18.4633C17.1194 18.0645 17.4773 18.0594 17.779 17.8754C18.5663 17.3948 18.7146 16.5102 18.2442 15.7382C17.963 15.278 17.2268 14.4396 18.1267 14.0766C18.5203 13.9129 19.0878 14.1532 19.5173 14.0458C19.9417 13.9436 20.2944 13.6932 20.5654 13.3608C21.138 12.6604 21.1892 11.7862 21.2096 10.9171C21.2301 9.89963 21.5113 9.14274 22.6361 9.04048C22.7434 9.03026 22.8406 9.03549 22.9326 9.03549ZM47.5401 79.5807C47.0646 79.7341 46.5584 79.8517 46.0625 79.8977C43.3937 80.1329 40.776 79.7085 38.1685 79.1972C38.0049 79.1666 37.8106 79.1051 37.7186 78.9875C37.5601 78.7779 37.3607 78.507 37.3914 78.282C37.4169 78.0622 37.6777 77.7555 37.8822 77.7044C38.2452 77.6226 38.6542 77.6839 39.0376 77.7351C40.8271 77.9549 42.6114 78.1953 44.4009 78.4253C44.406 78.3895 44.4111 78.3535 44.4162 78.3177C45.3723 78.2666 46.3284 78.19 47.2896 78.1747C47.6475 78.1696 47.9338 78.3945 48.0002 78.7728C48.0718 79.1512 47.8878 79.4631 47.5401 79.5807ZM58.4762 74.0538C58.4506 74.1816 58.4557 74.3707 58.3739 74.5037C57.6633 75.7154 57.7093 76.9835 58.0212 78.2873C58.1694 78.8906 58.2819 79.5039 58.3893 80.1174C58.4251 80.3322 58.466 80.598 58.3739 80.777C58.2614 81.0019 58.0365 81.2678 57.8218 81.3087C57.607 81.3496 57.244 81.1912 57.1264 81.0072C56.927 80.6851 56.8401 80.2812 56.7481 79.8977C56.4976 78.8547 56.2726 77.8015 56.0323 76.7585C55.93 76.3137 55.8074 75.8791 55.2756 75.5876C54.9944 75.787 54.6877 76.0121 54.3707 76.2217C54.1406 76.3751 53.9054 76.5386 53.6549 76.6511C53.3481 76.784 52.8727 76.6306 52.7857 76.3341C52.7142 76.0887 52.6835 75.7001 52.8215 75.5467C53.5833 74.7082 54.386 73.9006 55.429 73.4097C56.063 73.1132 56.7481 73.0978 57.4281 73.2307C57.8831 73.3279 58.2921 73.5221 58.4762 74.0538ZM71.621 69.6314C71.5187 69.8308 71.3858 70.025 71.2273 70.1783C69.6423 71.7275 67.904 73.0774 65.9868 74.1971C65.7976 74.3045 65.5726 74.3555 65.2863 74.4577C65.0869 74.289 64.8262 74.1458 64.6984 73.926C64.6012 73.7675 64.6114 73.4608 64.7086 73.2971C64.8364 73.0671 65.0614 72.8523 65.2965 72.7142C66.9684 71.7377 68.4715 70.5517 69.898 69.2479C70.1434 69.023 70.4246 68.7929 70.7365 68.7059C70.9614 68.6395 71.2886 68.7418 71.5034 68.8747C71.7641 69.0383 71.7641 69.3604 71.621 69.6314ZM81.0744 69.1865C82.1838 67.9697 83.0837 67.4226 83.7892 67.2181C84.9294 68.4707 86.0644 69.7337 87.1125 71.0681C87.6135 71.7072 88.2219 72.3923 88.5338 73.1541C88.8815 74.0079 88.5236 74.8974 88.1913 75.7052C79.152 88.9318 66.5952 95.4404 62.3925 97.5775C62.2954 97.4702 62.188 97.373 62.1011 97.2605C62.0244 97.1582 61.9477 97.0559 61.8813 96.9537C61.6972 96.6827 61.4007 96.5548 61.0786 96.6264C60.7769 96.6929 60.5571 97.01 60.5571 97.3117C60.5571 97.8996 60.6389 98.4925 60.782 99.0652C60.7769 99.1061 60.7462 99.1369 60.7411 99.1778C60.2759 102.537 59.1255 106.121 58.4506 107.22C58.2666 107.522 57.5457 108.667 57.5252 109.014L57.4434 113.309C57.4076 113.984 57.423 114.342 56.8452 114.71C56.7276 114.787 56.5743 114.777 56.4618 114.7L56.0783 114.444C55.8431 112.588 55.475 108.759 56.1806 106.699C56.2879 106.387 56.1192 106.049 55.8125 105.947C55.4955 105.839 55.1631 106.008 55.0558 106.315C54.1099 109.102 54.8513 114.378 55.0251 115.487C54.7848 115.763 54.5138 115.907 54.115 115.687L53.7725 115.472C53.7725 115.452 53.7827 115.431 53.7827 115.405C53.7725 115.221 53.752 114.95 53.7214 114.608C53.5731 112.737 53.2254 108.355 54.0435 106.044C54.1508 105.737 53.9923 105.395 53.6805 105.287C53.3737 105.18 53.0311 105.339 52.9238 105.651C52.0188 108.202 52.3665 112.594 52.5403 114.705C52.5557 114.899 52.5659 115.058 52.5812 115.206C52.4023 115.416 52.116 115.605 51.7376 115.354C51.7376 115.354 51.6456 115.329 51.5382 115.17C51.5638 115.037 51.5536 114.904 51.4922 114.782C51.2775 113.969 50.8378 107.302 51.7018 104.848C51.8092 104.536 51.6456 104.198 51.3388 104.091C51.027 103.979 50.6895 104.142 50.5822 104.454C49.9993 106.116 49.8868 110.554 50.1118 113.279C49.8101 112.962 49.5545 112.527 49.4931 111.806L49.3142 106.883C49.4267 105.2 49.8357 103.646 50.4032 102.23L50.393 102.235C50.393 102.24 50.3776 102.24 50.3725 102.245L51.436 100.088C52.8829 97.5109 54.7132 95.5783 55.7971 94.4944C56.2828 94.0138 59.9589 91.3347 60.148 91.1098C60.148 91.1098 70.9154 81.9887 73.3797 80.1481C75.0107 78.9313 75.2817 77.6635 77.3165 75.6593C78.1755 74.8157 77.7767 73.3279 77.6949 72.1316C79.5457 70.4597 81.0744 69.1865 81.0744 69.1865ZM35.5252 62.5145C35.5252 61.8192 36.0876 61.2568 36.7829 61.2568C37.4783 61.2568 38.0407 61.8192 38.0407 62.5145C38.0407 63.2098 37.4783 63.7722 36.7829 63.7722C36.0876 63.7722 35.5252 63.2098 35.5252 62.5145ZM23.5564 43.9962C23.5666 43.5053 23.7711 42.9584 24.2875 42.7999C25.0697 42.5647 25.7344 42.1863 26.3377 41.7261C27.9635 41.6086 29.5945 41.5523 31.2254 41.5676C31.7265 41.5727 31.7265 40.7956 31.2254 40.7905C29.9166 40.7751 28.6128 40.811 27.3091 40.8826C27.7743 40.4276 28.2191 39.9367 28.6588 39.4459C29.8757 38.0961 30.4585 36.5112 30.5557 34.7064C30.6579 32.8249 30.4483 30.9945 29.9421 29.1795C29.7581 28.5251 29.9984 27.9729 30.6579 27.656C30.8829 27.5486 31.1078 27.426 31.2919 27.2675C32.3962 26.2961 32.3604 24.527 31.1794 23.7243C30.6835 23.3869 30.0597 23.2385 29.4922 23.0136C29.0116 22.8193 28.6384 22.5024 28.4697 22.0065C28.1169 20.9737 28.2958 20.0585 29.0832 19.2712C29.5229 18.8315 30.3716 18.8621 30.6937 19.4092C31.1334 20.1505 31.5117 20.9328 31.9259 21.6895C32.4627 22.6609 33.3267 22.9624 34.4362 22.5789C34.6714 22.4971 34.927 22.4359 35.1264 22.2978L35.7348 21.9501C37.105 21.5769 38.4701 21.2036 39.8608 20.9173C41.6758 20.539 43.5522 20.3907 45.3467 20.9582C45.8273 21.1116 46.0216 20.3704 45.5564 20.2068C43.7158 19.578 41.7576 19.3836 39.8403 19.6137L42.8824 17.8804C44.1299 16.8578 45.3876 15.8455 46.6454 14.8332C47.0288 14.5265 48.0872 14.3016 48.7211 14.4345C48.4502 13.3609 47.99 12.3535 47.3254 11.4588C47.2027 11.2901 47.2947 11.0244 47.4634 10.9273C47.6628 10.8097 47.8673 10.8966 47.9951 11.0653C48.7876 12.139 49.3398 13.3967 49.5903 14.7107C49.5954 14.7413 49.5801 14.7718 49.5801 14.8025C50.1731 15.0991 51.1446 16.1474 50.6128 19.8643C48.895 20.8664 48.0207 22.5841 48.2047 25.483C48.2559 26.2295 48.307 26.3369 48.3632 26.9095C48.4041 27.2879 48.7927 28.2797 48.4706 28.6478C48.1281 29.0466 46.7221 29.2766 46.2312 29.0005C45.3621 28.5046 44.8764 29.4505 45.7455 29.9464C46.6198 30.4424 47.673 30.1613 48.5524 29.8546C49.0228 29.691 49.3858 29.5834 49.5801 29.1898C49.8561 28.6376 49.8255 27.6508 49.7488 26.9862C49.6772 26.3726 49.5596 25.7693 49.6261 25.1455C49.6568 24.849 49.713 24.5526 49.8153 24.2663C49.9789 23.7959 50.301 23.9238 50.301 23.9238C50.439 23.934 50.6793 23.9798 50.6588 24.1128C50.6537 24.1281 50.7202 24.0414 50.7355 24.0414C50.7355 24.0771 50.6997 24.1793 50.6997 24.2151C50.5617 27.4259 50.4288 30.3043 49.1353 33.1521C48.6853 34.144 48.1076 35.6471 47.1566 36.4447C47.1566 36.4447 46.3233 37.4214 45.0758 37.6515C44.7281 37.7128 43.0562 38.0655 42.1155 37.9735C41.093 37.8764 39.9273 37.6207 38.8485 37.0788C38.8485 37.0788 38.0867 36.7719 37.8515 37.2423C37.8515 37.2423 37.5294 37.7127 38.4701 38.0808C39.5898 38.5205 40.8629 38.8784 42.0593 38.9142C42.9898 38.9448 42.5245 38.8783 43.7362 38.8732L43.8589 39.3742C43.9663 39.952 44.8252 41.7618 44.7025 43.04C44.8866 45.0238 44.2475 48.0352 44.0174 50.0036C43.6953 52.7696 42.1002 54.779 39.8352 56.2822C39.8352 56.2822 38.6031 57.2228 36.2205 57.4375C36.0723 56.7371 35.9291 56.0367 35.7808 55.3363C35.7399 55.1317 35.4945 55.014 35.3003 55.0651C35.0906 55.1214 34.9833 55.3363 35.0293 55.546C35.1622 56.1902 35.3003 56.8342 35.4332 57.4784C34.1857 57.4989 32.6877 57.3199 30.934 56.7472C28.7406 56.0366 27.0126 54.4671 25.8826 52.514C24.3846 49.9168 23.4746 47.0638 23.5564 43.9962ZM8.7755 90.0618L16.9814 90.614C16.9865 91.7694 16.9763 92.9198 16.9763 94.0753H16.9405C16.9405 95.8085 16.9303 97.5467 16.9456 99.2799C16.9507 100.164 16.7104 100.977 16.4037 101.801C15.105 105.282 13.5252 110.308 12.247 113.795C12.2112 113.902 12.0476 114.071 12.017 114.056C11.8431 113.969 11.6131 113.872 11.5364 113.713C9.84406 110.098 8.79595 105.451 8.43806 103.304C7.65582 98.6817 8.28468 93.5282 8.7755 90.0618Z" fill="#281011"/>
<path d="M69.4178 61.625C70.9158 61.5534 72.4087 61.6148 73.8914 61.8142C75.277 61.9983 76.7392 62.2436 78.0429 62.7651C80.5022 63.7416 80.4306 66.4207 80.0113 68.6243C79.8375 69.5241 78.4673 69.1408 78.636 68.2461C78.7996 67.3922 78.9479 66.4616 78.7689 65.5976C78.5491 64.5597 77.864 64.1609 76.8926 63.8848C74.464 63.1946 71.9435 62.9238 69.4178 63.0465C68.4975 63.0976 68.5026 61.671 69.4178 61.625Z" fill="#E6D9C2"/>
<path d="M73.4621 79.1002C73.733 79.3711 74.2034 79.3762 74.4693 79.1002C75.819 77.7146 78.4265 75.0765 79.8581 73.7728C80.1802 73.4813 80.1188 72.8474 79.7149 72.6531C79.6433 72.6173 79.5718 72.5865 79.5002 72.5507C79.9041 71.5384 80.3693 70.5363 81.0647 69.708C81.9083 68.706 83.0689 67.9032 84.4186 67.8981C85.3389 67.8981 85.3338 66.4717 84.4186 66.4717C83.7182 66.4717 83.0382 66.6404 82.4093 66.9165C82.578 66.6149 82.7314 66.3082 82.8592 65.9759C82.9973 65.6129 82.7059 65.1936 82.3633 65.1016C81.9645 64.9942 81.6271 65.2395 81.489 65.5974C81.0698 66.6762 80.2415 67.5455 79.4184 68.3278C78.4265 69.2736 77.3989 70.1785 76.3865 71.0988C76.1002 71.3596 76.1258 71.8451 76.3865 72.1059C76.4172 72.1366 76.4581 72.152 76.4939 72.1775C76.4786 72.3258 76.5041 72.474 76.5808 72.5967C76.7342 72.8421 76.9387 73.0159 77.1279 73.2255C76.9745 73.3994 76.8927 73.6294 76.9592 73.8749C77.0052 74.0436 77.1279 74.1869 77.2762 74.284C76.407 75.1123 75.5174 75.9252 74.6789 76.7892C74.413 77.0755 73.186 78.8241 73.4621 79.1002Z" fill="#281011"/>
<path d="M58.4459 88.4926C62.4543 84.8063 66.4013 81.0536 70.2921 77.2446C71.2328 76.3192 72.1736 75.3939 73.1041 74.4633C73.9426 73.63 75.2105 72.7301 75.6297 71.6002C76.0081 70.5776 76.3302 69.6114 76.9693 68.7115C77.5879 67.8424 78.3344 67.1264 79.1984 66.5027C79.9449 65.9659 80.5175 67.0447 79.9193 67.7349C78.8865 68.9211 78.1657 69.3249 77.6186 70.3782C77.1687 71.2422 77.046 72.2546 76.4529 73.0471C75.7269 74.0288 74.7299 74.8519 73.8659 75.7108C72.9302 76.6413 71.9946 77.5666 71.0488 78.4869C67.2398 82.214 63.3746 85.8851 59.4531 89.4947C58.7782 90.1184 57.771 89.1164 58.4459 88.4926Z" fill="#E6D9C2"/>
</svg>
