<svg width="144" height="145" viewBox="0 0 144 145" fill="none" xmlns="http://www.w3.org/2000/svg">
<path d="M0.0283239 71.6138C0.0283239 70.2483 -0.046483 68.864 0.0470485 67.5078C0.262171 64.4774 0.580172 61.4563 1.12266 58.4633C1.98314 53.7493 3.22711 49.1569 5.03227 44.7235C8.29652 36.7079 12.7018 29.3844 18.5569 22.9774C26.8625 13.8862 36.9452 7.54475 48.618 3.6819C53.5938 2.03574 58.6913 0.978824 63.9104 0.455047C65.94 0.249278 67.979 0.183822 70.0086 0.0622311C72.3095 -0.0780662 74.5916 0.0435008 76.8738 0.183798C81.4756 0.483099 86.0212 1.25006 90.4827 2.43791C101.585 5.36545 111.35 10.7715 119.898 18.3757C125.679 23.5199 130.589 29.4124 134.442 36.1373C138.231 42.75 140.896 49.8023 142.411 57.2848C142.982 60.1001 143.337 62.9435 143.609 65.8149C143.758 67.4049 143.768 68.995 143.833 70.5756C143.908 72.493 143.768 74.4198 143.618 76.3465C143.515 77.5998 143.403 78.8438 143.253 80.0878C142.767 84.3154 141.906 88.4588 140.662 92.5181C137.52 102.825 132.347 112.01 125.267 120.119C119.01 127.284 111.583 132.933 103.016 137.077C98.6199 139.2 94.0462 140.771 89.2574 141.753C86.7975 142.258 84.3563 142.866 81.8778 143.259C79.2308 143.67 76.5652 143.932 73.8808 144.054C69.9899 144.232 66.1083 144.007 62.2548 143.502C56.3811 142.735 50.7131 141.183 45.2321 138.928C37.7777 135.87 30.9779 131.736 24.9264 126.414C15.5265 118.146 8.60516 108.185 4.37753 96.3716C2.6472 91.5454 1.35648 86.6256 0.654998 81.5375C0.18734 78.2452 -0.0839139 74.9342 0.0283239 71.6138ZM119.926 78.4042C127.007 76.6739 134.106 75.1867 141.167 73.2506C141.233 69.6684 141.13 66.1796 140.597 62.6629C139.596 62.8593 138.754 63.2428 137.875 63.4859C134.714 64.3838 131.449 64.6364 128.213 65.0666C127.979 65.0947 127.708 65.1415 127.54 64.8983C127.605 64.599 127.82 64.4774 128.073 64.4119C128.372 64.3371 128.672 64.2622 128.962 64.1781C132.609 63.1305 136.229 61.9895 139.923 61.1009C140.054 61.0728 140.204 61.0635 140.279 60.9138C140.316 59.5857 139.016 53.7212 138.446 52.6363C138.249 52.5521 138.062 52.6176 137.875 52.6643C136.678 52.9449 135.481 53.2256 134.283 53.5061C133.685 53.6464 133.086 53.8148 132.488 53.8896C132.085 53.9457 131.599 54.1328 131.319 53.637C131.365 53.4126 131.468 53.2723 131.618 53.1975C133.629 52.1312 135.855 51.701 138.006 51.093C137.735 49.2692 135.078 42.75 134.115 41.5341C134.003 41.5528 133.863 41.5622 133.732 41.5809C132.806 41.7118 132.001 42.1701 131.141 42.46C129.233 43.096 127.287 43.6198 125.361 44.1623C124.912 44.2932 124.435 44.3868 123.958 44.153C123.612 43.7228 123.481 43.2831 123.939 42.7032C127.016 41.7024 130.29 41.1132 133.676 40.4585C132.647 38.4569 131.59 36.6331 130.439 34.9027C129.841 34.8747 129.336 35.0711 128.971 35.3704C128.148 36.0438 127.156 36.2028 126.193 36.4553C125.463 36.6424 124.725 36.8107 123.995 36.9885C123.752 37.0446 123.499 37.1101 123.247 36.9511C123.041 36.7266 122.985 36.4179 122.891 36.128C122.947 35.8754 123.013 35.6322 123.209 35.4452C124.248 35.0523 125.37 34.912 126.436 34.5847C127.493 34.2573 128.644 34.3321 129.663 33.8738C129.598 33.5278 129.41 33.3127 129.251 33.0882C126.09 28.4865 122.461 24.2962 118.224 20.6392C111.219 14.597 103.325 10.1075 94.5606 7.16127C89.1077 5.32805 83.5239 4.16825 77.7717 3.75671C74.6945 3.53223 71.6267 3.46676 68.5589 3.63511C65.4069 3.81282 62.2736 4.20567 59.1683 4.79492C51.9757 6.16984 45.1666 8.58294 38.741 12.0904C31.1837 16.2245 24.6552 21.6213 18.9498 28.0749C11.3082 36.7266 6.62232 46.8186 4.19985 58.0237C4.15308 58.2575 4.04084 58.51 4.25597 58.7252C4.3495 58.7252 4.43367 58.7439 4.50849 58.7252C6.9216 58.1359 9.33473 57.5373 11.7385 56.9387C14.7689 56.1811 17.7713 55.3019 20.8298 54.6191C23.5515 54.0112 26.3294 53.6651 29.0231 52.9075C29.2663 52.8421 29.5188 52.8327 29.7807 52.9262C30.1735 53.3377 30.6412 53.7306 30.3699 54.4508C30.2109 54.5443 30.0613 54.6659 29.8836 54.7314C28.9857 55.0401 28.1158 55.4329 27.1805 55.6293C24.8329 56.1156 22.4666 56.5552 20.1283 57.0884C15.91 58.0517 11.6917 59.0057 7.37992 59.5295C6.19207 59.6698 5.0042 59.8569 3.88182 60.2217C3.29257 61.7463 2.73139 68.3121 3.07746 69.4252C3.6293 69.5561 4.1063 69.0323 4.62072 69.1913C5.11644 69.341 5.65894 68.9014 6.15465 69.3317C5.81794 69.8087 5.06034 69.6122 4.92939 70.1734C4.23726 70.4727 3.51705 70.295 2.80621 70.6598C2.87168 73.9895 2.98392 77.338 3.5077 80.6116C3.87247 80.7706 4.09695 80.6209 4.33078 80.5554C8.44617 79.3863 12.6364 78.5726 16.8547 77.9085C17.5374 77.8056 18.2389 77.7027 18.9404 77.8805C19.0152 77.8992 19.0713 77.9739 19.1368 78.0114C19.1742 78.2826 19.1181 78.5165 18.9685 78.6848C18.6504 78.9561 18.2763 79.0309 17.9209 79.0776C17.0511 79.1899 16.2374 79.4798 15.4236 79.7698C14.2451 80.2 13.0198 80.4806 11.8039 80.8079C10.9622 81.0324 10.083 80.9296 9.24118 81.1447C8.10945 81.4346 6.95902 81.6965 5.82729 82.0052C5.16322 82.1829 4.47108 82.2951 3.77895 82.6879C4.21854 85.3723 4.77037 88.0286 5.54668 90.6007C5.95822 90.6755 6.24819 90.5353 6.53814 90.4417C7.73534 90.0676 8.9606 89.7777 10.1859 89.5064C14.4135 88.5711 18.6598 87.7667 22.9248 87.0278C24.4588 86.7659 26.0301 86.6911 27.5359 86.2235C28.0878 86.0551 28.6864 85.999 29.2663 85.9054C31.006 85.6342 32.7644 85.4845 34.476 85.0917C34.9156 84.9888 35.3645 84.9701 35.8135 85.0543C36.1876 85.1291 36.4308 85.2975 36.3466 85.7464C36.1876 85.999 35.9164 86.0738 35.6451 86.1486C34.9436 86.3263 34.2422 86.5134 33.5313 86.663C31.6233 87.0746 29.6778 87.3271 27.7791 87.776C25.2538 88.3747 22.7378 89.0294 20.2218 89.6748C16.4618 90.6381 12.627 91.2741 8.82028 92.0317C7.95044 92.2001 7.08061 92.3872 6.26689 92.7239C6.47266 94.6039 10.1297 103.284 11.196 104.387C11.8694 104.228 12.5803 104.079 13.2818 103.901C16.0129 103.209 18.744 102.479 21.5406 102.096C23.5328 101.824 25.5437 101.722 27.5266 101.357C27.8539 101.301 28.2374 101.179 28.5835 101.488C28.4151 101.909 28.0223 101.946 27.7043 102.049C23.458 103.321 19.2397 104.743 14.8531 105.482C13.9271 105.641 13.0199 105.912 12.0004 106.155C13.263 108.437 14.5818 110.56 16.0316 112.553C16.1906 112.562 16.2748 112.59 16.3589 112.581C18.8375 112.169 21.3161 111.748 23.7947 111.337C27.0402 110.794 30.2484 110.009 33.5313 109.653C34.3263 109.569 35.1307 109.522 35.8977 109.597C36.0193 109.84 36.1128 110.008 36.0473 110.392C34.6443 110.841 33.0917 111.019 31.5952 111.411C30.08 111.804 28.5835 112.244 27.0402 112.534C25.4689 112.824 23.963 113.357 22.4291 113.778C20.942 114.189 19.3894 114.395 17.9303 114.956C18.8282 116.799 25.0387 123.412 27.3021 124.945C27.5734 124.899 27.8727 124.861 28.172 124.796C28.3871 124.749 28.6116 124.702 28.8173 124.627C32.3996 123.43 36.0567 122.542 39.7512 121.784C44.7551 120.755 49.7684 119.773 54.7817 118.8C55.6048 118.641 56.4185 118.408 57.2603 118.464C57.9711 118.511 58.1301 118.716 58.0927 119.502C57.8402 119.726 57.6157 120.035 57.2509 120.119C55.7357 120.493 54.2205 120.914 52.6959 121.204C49.3475 121.84 45.9897 122.429 42.6881 123.262C40.0879 123.917 37.4877 124.562 34.8314 124.974C33.0637 125.245 31.3053 125.544 29.5936 126.077C29.3879 126.143 29.1541 126.143 29.0418 126.442C33.3443 129.949 38.0302 132.84 43.0715 135.122C43.3989 134.869 43.6982 134.757 44.0349 134.682C45.6156 134.317 47.1869 133.943 48.7957 133.719C50.3202 133.504 51.8167 133.232 53.2665 132.681C54.6227 132.157 56.0163 131.736 57.3912 131.278C57.784 131.147 58.1862 131.006 58.6165 130.997C59.187 130.988 59.3741 131.165 59.5331 131.82C59.3741 132.091 59.1402 132.288 58.8409 132.391C58.6819 132.447 58.5229 132.493 58.3639 132.54C54.5572 133.635 50.7972 134.916 46.897 135.683C46.448 135.767 45.971 135.823 45.5688 136.113C45.8214 136.394 46.1581 136.459 46.4667 136.581C51.0778 138.423 55.8292 139.733 60.7209 140.565C64.1068 141.145 67.5207 141.51 70.9626 141.547C73.5908 141.575 76.2097 141.538 78.838 141.304C82.0742 141.014 85.301 140.603 88.4063 139.695C96.4687 137.338 104.082 133.971 111.003 129.136C115.306 126.133 119.262 122.738 122.835 118.894C122.994 118.726 123.209 118.576 123.172 118.286C123.06 118.286 123.004 118.277 122.957 118.286C118.205 119.764 113.295 120.596 108.469 121.784C107.982 121.906 107.496 122.037 106.982 121.868C106.776 121.56 106.589 121.251 106.804 120.839C106.879 120.802 106.972 120.718 107.075 120.699C109.189 120.185 111.275 119.53 113.417 119.137C116.933 118.482 120.45 117.884 123.93 117.023C124.453 116.892 124.827 116.668 125.174 116.256C127.961 112.917 130.355 109.326 132.469 105.528C132.6 105.295 132.796 105.07 132.759 104.63C128.625 105.781 124.444 106.585 120.263 107.418C116.054 108.25 111.855 109.139 107.664 109.737C107.3 109.363 107.169 109.054 107.393 108.549C116.026 106.576 124.725 104.584 133.573 103.302C135.406 100.506 139.128 90.4323 138.997 88.5337C137.576 88.8517 136.238 89.4409 134.845 89.8244C133.442 90.2079 132.067 90.6662 130.654 91.0029C129.251 91.3303 127.914 91.9102 126.483 92.1253C126.137 91.6202 125.894 91.19 126.212 90.6662C126.633 90.2734 127.166 90.105 127.699 89.9366C129.513 89.3661 131.365 88.9452 133.236 88.6085C135.294 88.2344 137.323 87.748 139.353 87.3458C140.204 85.5781 141.467 75.8975 141.018 74.3823C137.716 75.8321 134.312 76.9732 130.823 77.8617C124.163 79.5453 121.114 80.1813 120.17 80.041C119.973 79.7604 119.814 79.4424 119.721 79.1057C119.674 78.8251 119.767 78.6287 119.926 78.4042Z" fill="#47292A"/>
<path d="M52.7152 126.339C52.8368 126.058 52.949 125.778 53.0893 125.469C53.4073 125.188 53.7815 124.964 54.2211 124.833C54.8103 124.655 55.3902 124.478 55.8579 124.029C56.1665 123.739 56.6248 123.748 57.0083 123.561C57.476 123.337 57.9997 123.206 58.4954 123.009C58.8976 122.85 59.3185 122.944 59.7301 123.056C60.0761 123.149 60.4316 123.215 60.8431 123.299C62.218 119.782 63.2001 116.153 64.4534 112.618C65.6974 109.082 66.5953 105.463 67.4651 101.834C67.3996 101.375 67.0255 101.048 66.96 100.59C66.8665 99.9069 67.0068 99.2522 67.2968 98.6349C68.2321 96.6707 69.0645 94.6504 70.1401 92.7517C70.6265 91.8912 71.169 91.1524 72.2727 91.0308C72.7122 89.5717 73.526 88.3464 74.2742 87.065C74.8073 86.1577 75.2002 85.1663 75.6398 84.1936C76.0794 83.2115 76.7996 82.4258 77.4262 81.5747C77.6039 81.3315 77.9219 81.3315 78.1651 81.1819C78.5486 80.7984 78.717 80.2933 78.8479 79.7789C79.035 78.9932 79.2782 78.217 79.5775 77.4687C80.0077 76.3744 80.6998 75.4858 81.6726 74.803C81.8316 74.6908 82.0373 74.6066 82.1308 74.4476C82.4582 73.9425 82.9446 73.8116 83.5058 73.8116C83.9828 73.213 84.4504 72.6331 84.9462 72.0064C84.7778 71.305 85.0584 70.669 85.498 69.9862C84.5814 67.3673 84.2166 64.5988 84.2353 61.6151C83.5806 62.0828 83.0662 62.4475 82.5611 62.8216C82.1309 63.1396 81.6819 63.4109 81.1301 63.467C80.9617 63.4857 80.8121 63.5512 80.6624 63.626C79.7552 64.0656 78.8947 63.9253 78.268 63.1209C77.1643 61.6899 75.9204 60.3711 75.0786 58.725C74.5081 57.6119 73.6475 56.6579 72.9835 55.601C71.356 53.0289 69.7566 50.4287 68.1385 47.8566C67.6615 47.099 67.5587 46.3227 67.7364 45.4528C67.9234 44.5362 68.0263 43.5916 68.1853 42.5627C66.2586 42.7966 64.5002 43.339 62.7979 43.7132C62.4799 43.5261 62.2928 43.3764 62.2928 43.0771C62.4144 42.6937 62.7698 42.6469 63.0785 42.544C64.4066 42.1138 65.7816 41.8612 67.1565 41.6087C67.4558 41.5526 67.7644 41.5058 68.0637 41.3C68.0824 40.8791 67.8579 40.5424 67.5774 40.187C65.847 40.5144 64.2196 41.2252 62.5454 41.5152C62.2367 41.7584 62.0964 42.1044 61.7036 42.1512C61.2827 41.9267 61.4417 41.5432 61.4323 41.2159C61.8626 40.5799 62.4986 40.3928 63.172 40.2525C64.6966 39.9158 66.2211 39.5697 67.7738 39.2237C68.1853 38.6812 68.6343 38.1481 69.2329 37.7739C69.7473 37.4466 70.2991 37.2875 70.9071 37.3811C71.4589 37.4652 72.0014 37.5214 72.5719 37.4185C73.2266 37.2969 73.5821 37.7926 74.0123 38.2603C80.3257 36.717 86.7139 35.4356 93.2237 34.1168C92.8309 33.406 92.3819 32.8354 92.1013 32.1807C91.8114 31.4979 91.8675 30.759 91.7552 30.0669C91.1847 29.964 91.1847 29.9641 90.6422 30.3569C90.3523 30.6749 90.4926 31.1612 90.0904 31.4418C89.6227 31.2454 89.2954 30.8339 89.3328 30.3662C89.417 29.3373 89.0522 28.4582 88.6594 27.5602C88.5939 27.4106 88.5658 27.2422 88.5097 27.0365C88.173 26.8307 87.8176 26.6156 87.3873 26.3631C87.0132 27.0365 86.8168 27.7006 86.9103 28.4488C87.1254 30.1324 87.3406 31.8253 87.5276 33.5089C87.5744 33.9485 87.537 34.3881 87.537 34.8838C87.0506 34.7061 86.8636 34.3319 86.742 33.8923C86.5362 33.1067 86.4239 32.3023 86.3398 31.5073C86.2182 30.4223 85.9376 29.3654 85.8908 28.2711C85.8628 27.5603 85.9376 26.8775 86.1808 26.2134C86.3772 25.6896 86.6017 25.1846 86.6765 24.6234C86.7233 24.2306 86.9945 23.9125 87.3219 23.6694C88.014 23.1456 88.6968 22.6125 89.4731 22.2103C90.8761 21.4807 92.3726 21.5088 93.8691 21.8361C95.8987 22.2757 97.3484 23.5384 98.4895 25.2033C98.8262 25.699 98.9946 26.2789 99.032 26.8588C99.1349 28.4488 99.2471 30.0389 98.9198 31.6195C98.8262 32.0498 98.6766 32.4707 98.555 32.9196C99.0507 33.1067 99.4716 32.8822 99.8925 32.798C104.307 31.9563 108.713 31.0771 113.165 30.413C113.679 30.3382 114.193 30.1885 114.727 30.3475C114.699 30.8152 114.212 30.6655 114.044 30.9835C114.184 31.2361 114.334 31.526 114.483 31.8066C114.886 31.9656 115.213 31.8159 115.55 31.6663C115.718 31.1238 115.316 30.6001 115.596 30.0015C116.195 29.5525 116.728 30.1324 117.252 30.2259C117.729 30.7404 117.766 31.2734 117.654 31.8814C118.299 32.3678 118.973 32.8261 119.469 33.4714C119.59 33.6304 119.74 33.7614 119.833 33.9297C120.769 35.6881 121.601 37.484 121.611 39.5323C121.62 40.7576 121.695 41.9922 121.442 43.2081C121.246 44.1528 120.787 44.7607 119.871 45.191C117.701 46.2198 115.372 46.6781 113.099 47.3515C112.781 47.4451 112.435 47.4731 112.08 47.2861C111.247 46.2479 110.677 45.0506 110.49 43.6944C110.228 41.8051 110.19 39.9064 110.564 38.0264C110.845 36.6235 111.266 35.2673 112.183 34.1262C112.248 34.042 112.323 33.9485 112.229 33.7146C109.002 34.4161 105.776 35.1644 102.539 35.8846C102.558 36.3055 102.792 36.4925 102.951 36.7077C104.073 38.2322 104.625 39.9532 104.859 41.8238C105.093 43.6664 104.831 45.4248 104.363 47.1926C103.587 50.1014 102.717 52.9915 102.24 55.9751C102.006 57.4062 101.857 58.8466 101.642 60.2776C101.352 62.2044 101.015 64.1311 100.716 66.0578C100.622 66.6377 100.566 67.2176 100.491 67.8536C101.09 69.1818 102.09 70.4725 101.501 72.0345C101.576 72.3245 101.744 72.3712 101.885 72.4741C102.895 73.213 103.222 74.2512 102.811 75.4297C102.717 75.6916 102.596 75.9441 102.474 76.1966C102.324 76.5146 102.278 76.8233 102.493 77.1413C102.904 77.7399 102.904 78.4414 102.708 79.0774C102.306 80.3962 102.212 81.7243 102.315 83.0899C102.427 84.4929 102.119 85.8678 101.913 87.2427C101.857 87.5981 101.791 87.9535 101.744 88.2435C102.287 90.0019 102.614 91.7135 102.362 93.4813C102.278 94.0705 102.296 94.6411 102.502 95.2116C103.026 96.6426 102.988 98.055 102.278 99.4299C102.165 99.6544 102.062 99.8788 102.044 100.159C103.475 101.862 103.924 103.966 104.317 106.08C104.644 107.894 104.812 109.718 104.868 111.57C104.906 112.683 105.037 113.806 104.943 114.919C104.737 117.463 104.915 120.007 104.794 122.542C104.737 123.72 104.953 124.88 105.046 126.049C105.112 126.835 105.055 127.611 104.896 128.369C104.719 129.21 104.279 129.921 103.475 130.342C103.4 130.379 103.334 130.436 103.269 130.482C102.09 131.521 100.856 131.427 99.5464 130.735C98.6485 130.258 97.8441 129.65 97.0678 129.023C95.8893 128.079 94.6641 127.199 93.5511 126.171C92.8963 125.563 92.4287 124.861 92.2323 123.982C92.1668 123.673 92.1387 123.374 92.3632 122.972C93.1489 122.691 94.0374 122.373 94.954 122.214C95.8613 122.064 96.7592 122.598 97.788 122.308C96.3009 116.668 95.4498 110.916 94.3087 105.238C88.4442 106.407 82.6827 107.296 76.7341 106.52C76.0981 107.913 75.4246 109.382 74.7606 110.85C74.3677 111.72 73.9281 112.562 73.4044 113.347C72.5906 114.582 71.7769 115.826 70.9539 117.051C68.9897 119.969 67.5399 123.14 66.3895 126.451C66.1744 127.059 65.9593 127.667 65.6787 128.238C64.9491 129.697 63.2468 130.436 61.6662 129.996C60.3193 129.622 58.9818 129.229 57.6349 128.864C56.2226 128.481 54.8945 127.91 53.6131 127.218C53.1922 127.068 52.8181 126.844 52.7152 126.339ZM81.1768 59.7912C81.233 59.5013 81.4949 59.361 81.6819 59.1552C82.2244 58.5847 82.7762 58.0422 83.3094 57.4623C84.7591 55.8723 86.0498 54.1419 87.6399 52.6829C88.4255 51.9627 89.1551 51.1957 89.9407 50.4755C90.4084 50.0452 90.9135 49.615 91.643 49.933C91.802 50.4474 91.4747 51.0086 91.8768 51.3828C91.8675 51.7195 91.7365 51.9346 91.643 52.1684C91.2034 53.3095 90.6703 54.4319 90.4458 55.6478C90.2026 56.9946 89.6414 58.1918 88.7529 59.2955C88.1075 59.4264 87.4248 59.3891 86.77 59.1646C86.424 59.4545 86.1247 59.7445 85.7973 60.1654C85.8628 63.3454 85.9563 66.6003 86.3585 69.8365C86.9571 70.4257 87.4809 70.725 88.1543 70.8279C89.3234 71.015 90.4832 71.0524 91.643 70.7718C93.6352 70.2948 94.8418 69.0509 95.3094 67.068C95.5526 66.0579 95.4965 65.0196 95.6087 63.9908C95.7958 62.2979 95.8893 60.605 96.1699 58.9214C96.2354 58.5379 96.3383 58.1544 96.4505 57.7896C96.5534 57.4529 96.7592 57.2565 97.2549 57.4717C97.124 59.6884 97.0117 61.9518 96.993 64.1966C97.4981 64.4491 97.7974 64.2059 98.0499 63.8785C98.3305 63.5231 98.5176 63.1023 98.6298 62.6814C99.2845 60.1467 100.276 57.7055 100.762 55.1146C101.361 51.9065 102.203 48.7451 102.717 45.5183C103.26 42.1044 102.558 38.9524 99.8831 36.5112C99.6493 36.4645 99.4716 36.4738 99.3594 36.6889C101.071 39.1769 101.183 39.4107 101.024 40.187C99.7054 39.7661 98.6205 38.597 97.1053 38.8495C96.8995 39.2236 97.311 39.6913 96.8153 39.9719C96.1512 39.6445 95.431 39.4388 94.767 39.0647C93.9345 38.5877 93.0553 38.2509 92.0452 38.4661C91.7552 38.5315 91.4185 38.5128 91.1286 38.4473C90.4271 38.279 89.8753 38.5502 89.3328 38.9337C88.6594 39.4201 88.2198 40.1122 87.8176 40.8137C86.7513 42.6843 85.7131 44.5643 84.6656 46.4443C83.2252 49.0257 81.8596 51.654 80.1573 54.0858C79.4278 54.0765 79.0256 53.6088 78.6702 53.1037C76.9679 50.7093 74.798 48.6984 73.2173 46.2759C72.6561 46.014 71.7956 46.2759 71.7676 45.378C71.9733 45.0039 72.3568 45.2097 72.5626 44.9571C73.0022 43.339 73.0677 41.6742 73.0022 39.9906C72.9928 39.6258 72.9461 39.2611 72.5626 38.9243C71.9172 39.0085 71.2157 38.5035 70.4301 38.887C70.1401 38.597 69.8221 38.597 69.4948 38.887C69.5415 39.5043 69.4106 39.7942 69.1487 39.7942C68.84 39.7848 68.8587 39.4107 68.5968 39.42C68.4191 39.7848 68.4098 39.7942 68.5314 39.9719C69.3264 41.141 69.3638 42.413 69.0832 43.7505C68.9242 44.5175 68.812 45.2938 68.6997 46.0608C68.6156 46.6501 68.9336 47.0616 69.3264 47.417C69.5696 47.3796 69.7566 47.1832 70.112 47.3515C73.5447 51.5792 76.6499 56.1903 79.9048 60.6798C79.989 60.792 80.0171 60.9323 79.8955 61.1194C79.4278 61.1942 79.1004 60.8856 78.7824 60.5769C77.7442 59.5481 76.9305 58.3415 75.9671 57.2472C75.8549 57.1163 75.7894 56.9011 75.5275 56.9292C75.5182 57.2752 75.7333 57.4997 75.8923 57.7522C76.1074 58.0796 76.3319 58.3976 76.5751 58.7063C77.4262 59.7725 78.2025 60.9042 79.1753 61.877C79.5213 62.2137 79.8861 62.5036 80.2696 62.4756C83.3655 59.9409 86.0592 57.191 88.5471 54.2261C87.6679 54.7592 87.0132 55.5636 86.2837 56.2651C85.5354 56.9853 84.8339 57.7429 84.0015 58.3695C83.1784 58.9868 82.4395 59.7071 81.579 60.1466C81.3171 60.0999 81.2049 59.9876 81.1768 59.7912ZM76.7154 84.7922C76.3974 85.157 76.2384 85.503 76.2477 85.9146C76.2664 86.5599 76.2758 87.1959 76.2851 87.8413C76.2851 88.1874 76.4161 88.4867 76.5564 88.7954C76.996 89.7307 77.6694 90.3854 78.6608 90.7127C79.1846 90.8904 79.5962 91.1991 79.858 91.6948C79.989 91.9473 80.017 92.1718 79.671 92.3495C79.1004 91.9848 78.427 91.7883 77.7723 91.5826C76.9118 91.3113 76.36 90.7501 76.0045 89.927C75.7707 89.3752 75.4434 88.8608 75.1067 88.2435C74.4519 89.2443 73.8533 90.1422 73.4885 91.171C73.2641 91.7977 73.2734 92.4618 73.5072 93.0604C74.0217 94.3418 74.8447 95.4454 75.7333 96.4836C75.9484 96.7362 76.2384 96.9326 76.5283 97.0916C76.7247 97.2038 76.9399 97.4002 77.2485 97.2038C76.8744 96.2217 75.8081 95.5857 75.7427 94.3418C76.201 94.454 76.388 94.7346 76.6125 94.9684C77.632 96.044 78.6141 97.1477 79.9235 97.896C80.466 98.2046 80.9898 98.4946 81.6351 98.4852C81.8409 98.4852 82.028 98.5132 82.1308 98.7564C82.1402 99.037 82.0186 99.2709 81.7754 99.4954C80.9898 99.7853 80.2135 99.6637 79.5213 99.2522C77.0334 99.4766 75.1815 98.5974 73.9001 96.4743C73.2641 95.4173 72.6094 94.3792 72.1791 93.2287C72.1136 93.051 72.0762 92.8453 71.7208 92.8172C70.3646 95.2023 69.0552 97.6528 68.0357 100.141C68.2789 100.814 68.6436 101.141 69.2048 101.282C71.4309 101.806 73.4511 102.769 75.3966 103.975C76.6406 104.742 78.0248 105.201 79.5307 105.145C80.8962 105.089 82.2618 105.06 83.6274 104.939C84.3382 104.873 85.0677 104.808 85.7038 104.396C87.4154 103.283 89.0615 102.077 90.5206 100.636C91.1192 100.047 91.7552 99.4766 92.251 98.5881C91.6243 98.7938 91.2034 99.0745 90.7732 99.3083C90.0343 99.7105 89.3047 100.122 88.4816 100.318C87.5744 100.534 86.7326 100.468 85.9189 99.9256C85.021 99.3363 84.385 98.56 83.8799 97.6434C83.7864 97.4657 83.6928 97.2973 83.7957 97.0729C84.0202 96.8577 84.3289 96.811 84.6282 96.7736C85.5448 96.68 86.452 96.5023 87.3499 96.3059C89.894 95.7447 92.2977 94.8468 94.2806 93.1165C95.88 91.7229 97.1801 90.0299 98.4053 88.2996C98.4147 88.2903 98.3866 88.2528 98.3679 88.178C97.7039 88.5989 97.1146 89.0666 96.5908 89.6465C95.3188 91.0494 94.3928 92.7705 92.5409 93.659C91.7927 94.0144 91.0818 94.454 90.2868 94.7066C88.7155 95.2023 87.0974 95.1461 85.4699 95.0713C84.9087 95.0432 84.3476 95.0152 83.8144 94.8468C82.9352 94.5662 82.533 93.9021 82.6827 92.9762C83.0287 92.8546 83.4029 92.8452 83.7209 93.0323C84.7778 93.659 85.9376 93.7338 87.1161 93.7245C90.2213 93.7058 92.2229 91.9941 93.7101 89.4594C92.9524 89.6277 92.1948 89.8242 91.4934 90.1235C90.0436 90.7501 88.5284 91.1243 86.9758 91.3114C85.3484 91.5078 83.8705 91.1336 82.5985 90.058C82.215 89.7306 81.8503 89.3939 81.4761 89.0572C79.8019 88.7111 77.6975 86.8405 76.7154 84.7922ZM90.1933 77.5996C90.3803 77.1319 90.7825 77.0946 91.1286 77.0384C91.6524 76.9543 92.1855 76.9075 92.7093 77.0197C93.7288 77.2348 94.767 77.1881 95.7865 77.3284C96.1419 77.3751 96.5066 77.291 96.8621 77.2349C98.0031 77.0478 98.873 76.2902 99.9486 75.9067C100.014 75.3736 100.08 74.8498 100.136 74.3821C100.014 74.167 99.8738 74.0922 99.6493 74.1015C98.6018 74.6814 97.601 75.5326 96.2448 75.2426C96.0016 74.9901 95.7584 74.7843 95.8613 74.4196C96.1512 74.0735 96.6563 74.1483 97.0024 73.7836C97.5261 72.4835 98.7514 71.4172 98.8075 69.7897C98.3492 69.8272 98.0686 70.0797 97.7693 70.2761C97.1988 70.6409 96.6095 70.9402 95.9829 71.1834C94.3648 71.8287 92.6812 72.259 90.9696 72.4835C89.2767 72.7079 87.6118 72.5396 86.3024 71.2114C86.2182 71.1273 86.1247 71.0711 86.0031 71.0898C85.8347 71.1647 85.7786 71.3143 85.7786 71.5388C86.4707 72.446 87.2845 73.2037 88.5191 73.3627C89.4824 73.4842 90.4458 73.6433 91.4092 73.7836C91.8207 73.8397 92.2136 73.9239 92.2884 74.485C91.1754 74.2886 90.1185 74.4289 89.0709 74.4382C87.9205 74.4476 86.929 74.1577 86.1527 73.2598C85.9563 73.0353 85.7786 72.764 85.4045 72.6237C84.7778 73.6526 84.0483 74.6253 84.0483 75.9441C84.0483 76.6082 83.9828 77.2816 83.9079 77.9457C83.777 79.0867 84.095 80.1063 85.0303 80.8545C85.498 81.2287 85.9002 81.6402 86.0872 82.2294C86.1808 82.5194 86.293 82.8094 86.0592 83.0806C85.6102 82.9403 83.9173 81.8179 83.6274 81.4905C82.2805 79.9566 82.2337 78.1234 82.5237 76.1873C82.3179 76.2434 82.2244 76.2434 82.1683 76.2902C81.2984 76.973 80.6063 77.7773 80.2696 78.881C79.8767 80.1811 79.6336 81.5467 78.7544 82.6503C79.222 83.8756 79.5962 85.0634 79.7832 86.3355C80.6998 86.4851 81.4668 86.8779 82.187 87.3643C82.2524 87.4111 82.346 87.4204 82.4208 87.4579C83.4309 87.9816 84.5627 88.0752 85.6383 88.3277C86.3585 88.4961 87.0787 88.4025 87.8082 88.3651C88.1262 88.3464 88.3975 88.1967 88.6126 87.9629C89.1738 87.3456 89.9033 86.9996 90.689 86.7657C91.8488 86.4197 92.8963 85.8304 93.9439 85.2505C94.0935 85.1663 94.2806 85.0915 94.2619 84.8764C94.1216 84.7829 94.0093 84.8202 93.9065 84.8483C92.1574 85.3721 90.3991 85.4095 88.6126 84.9605C87.9579 84.7922 87.4341 84.5116 87.1909 83.8101C87.4154 83.623 87.6305 83.5482 87.8924 83.5389C88.4536 83.5202 89.0054 83.4734 89.5666 83.4734C91.6804 83.4734 93.7381 83.1274 95.7397 82.5007C97.0024 82.1079 97.9751 81.3876 98.4053 80.0595C98.555 79.5918 98.8636 79.2458 99.2658 78.9558C99.6306 78.6939 99.986 78.4227 100.229 78.0299C100.313 77.8896 100.444 77.7587 100.267 77.5903C99.958 77.5435 99.7428 77.7493 99.5184 77.9083C98.8917 78.3666 98.1809 78.5817 97.442 78.7501C95.88 79.1149 94.3928 78.694 92.9057 78.3479C92.3913 78.2263 91.8956 78.0392 91.3531 78.0673C90.9041 78.114 90.53 77.9737 90.1933 77.5996ZM68.4752 103.218C68.2882 103.433 68.2601 103.676 68.2134 103.929C68.0263 105.004 67.8299 106.071 67.6148 107.137C67.1284 109.522 66.3334 111.823 65.5103 114.105C64.0699 118.08 62.9756 122.186 60.946 125.946C61.1611 126.358 61.5726 126.657 61.9374 126.947C61.9655 127.274 61.8439 127.471 61.5633 127.592C60.8244 127.471 60.4409 126.966 60.2819 126.33C59.8797 126.161 59.5617 126.386 59.2063 126.367C58.9725 126.068 58.458 125.993 58.4487 125.478C58.6638 125.226 59.0286 125.432 59.3092 125.039C59.3559 124.88 59.5991 124.627 59.6085 124.244C59.2156 124.253 59.2624 124.749 58.9537 124.73C58.6638 124.655 58.6264 124.309 58.299 124.244C56.84 124.421 55.6053 125.422 54.1275 125.684C53.9779 125.712 53.8376 125.853 53.7721 126.077C54.5671 126.526 55.437 126.835 56.2788 127.181C57.0738 127.517 57.9343 127.667 58.7854 127.845C59.9358 128.088 61.0769 128.34 62.1338 128.883C62.6108 129.126 63.0972 129.145 63.5929 128.958C64.1915 128.266 64.7527 127.555 64.9211 126.423C64.5095 126.872 64.3692 127.293 64.1354 127.658C63.9577 127.938 63.7987 128.247 63.5274 128.453C63.1814 128.724 62.9943 128.649 62.7698 128.116C63.3778 127.489 63.6584 126.666 63.9483 125.853C64.6779 123.711 65.4916 121.606 66.4363 119.549C66.642 119.1 66.9039 118.688 67.3622 118.426C67.6896 118.81 67.3903 119.212 67.5119 119.754C68.6997 117.248 70.1869 115.124 71.6553 112.983C71.4683 112.552 71.6273 112.141 71.6834 111.739C71.8892 110.354 71.964 108.961 72.0108 107.567C72.0388 106.604 71.646 105.809 70.9539 105.201C70.1588 104.509 69.3077 103.882 68.4752 103.218ZM93.2518 123.916C93.2143 124.356 93.4108 124.599 93.6352 124.805C93.9439 125.086 94.2712 125.357 94.6079 125.6C95.8239 126.489 97.2362 127.078 98.4147 128.022C99.5371 128.93 100.837 129.51 102.184 129.968C102.867 129.566 103.241 128.892 103.699 128.303C103.718 127.368 103.774 126.451 103.559 125.544C103.409 124.917 103.316 124.281 103.353 123.636C103.4 122.701 103.213 121.803 102.96 120.914C102.568 119.539 102.352 118.136 102.38 116.705C102.418 115.283 102.334 113.871 102.465 112.44C102.605 110.953 102.287 109.438 102.137 107.941C102.119 107.754 102.081 107.539 101.735 107.343C101.735 108.409 101.829 109.372 101.707 110.308C101.585 111.243 101.716 112.262 101.108 113.104C100.744 112.973 100.688 112.711 100.65 112.421C100.482 111.149 100.426 109.868 100.173 108.605C99.958 107.539 99.7335 106.491 99.2939 105.481C98.7046 105.519 98.1809 105.528 97.6664 105.463C97.1707 105.762 96.675 106.024 96.2448 106.398C97.4513 112.627 98.6485 118.838 99.8738 125.151C99.7802 125.394 99.7615 125.815 99.4061 126.049C98.0219 125.628 96.3944 125.694 95.7771 124.141C95.749 123.814 96.0577 123.711 95.9642 123.561C94.8886 122.775 94.131 123.636 93.2518 123.916ZM74.4706 41.6274C74.3864 42.067 74.3116 42.5066 74.2275 42.9462C73.8907 44.6765 74.0965 46.2104 75.4153 47.5666C76.9679 49.166 78.4925 50.8029 79.8113 52.6174C79.8861 52.7203 79.9609 52.8605 80.2509 52.7857C82.2805 48.2775 84.095 43.5822 86.8448 39.1862C82.5985 39.8596 78.6047 40.9166 74.4706 41.6274ZM114.109 33.1535C113.801 33.7053 113.52 34.2104 113.239 34.7248C112.921 35.314 112.547 35.8565 112.313 36.5019C111.603 38.4754 111.444 40.5331 111.547 42.6001C111.584 43.4513 111.621 44.3305 111.967 45.1442C112.117 45.4996 112.201 45.9018 112.706 46.0608C115.157 45.1255 117.897 45.1442 120.395 44.1528C120.563 43.4513 120.544 42.8059 120.526 42.1325C120.479 39.9812 120.058 37.9422 119.188 35.9781C118.833 35.1737 118.393 34.4442 117.785 33.8269C117.392 33.434 116.971 33.0693 116.494 32.6203C115.765 32.8635 114.914 32.9758 114.109 33.1535ZM96.5066 100.169C98.0031 99.0744 98.4615 98.4946 99.163 96.811C99.9486 94.9497 100.276 93.4345 100.08 92.574C99.7522 92.8827 99.4248 93.182 99.1162 93.4719C99.0039 93.977 99.1162 94.4821 98.9385 94.9778C98.3773 96.5023 97.5823 97.8866 96.2635 98.85C94.4583 100.169 93.0366 101.937 91.0818 103.078C90.7451 103.274 90.5019 103.555 90.3803 104.022C91.3624 103.929 92.2697 103.835 93.233 103.742C93.551 103.396 94.0187 103.227 94.5051 103.096C96.1419 102.657 97.6103 101.89 99.0226 100.973C99.9392 100.375 100.65 99.6263 101.155 98.6723C101.314 98.373 101.501 98.0643 101.38 97.5219C100.818 98.4665 100.36 99.3176 99.4716 99.7572C98.6298 100.169 98.0593 101.123 97.0117 101.076C96.7124 100.777 96.5253 100.515 96.5066 100.169ZM112.931 31.1893C100.061 34.1449 87.247 36.8947 74.2742 39.2143C74.4426 39.5417 74.321 39.8503 74.4987 40.0467C87.2377 37.3624 99.8925 34.3974 112.716 32.3304C112.79 31.9563 112.847 31.6289 112.931 31.1893Z" fill="#47292A"/>
<path d="M10.1952 69.0136C10.0455 68.6956 10.0081 68.4524 10.0175 68.228C10.1952 67.8164 10.5786 67.7603 10.9247 67.6855C15.4516 66.7034 19.885 65.3378 24.4587 64.5989C29.6404 63.7665 34.6724 62.2607 39.7511 60.9886C40.3217 60.8483 40.8829 60.6893 41.5002 60.708C41.893 61.026 42.211 61.3908 42.1455 61.9801C41.6218 62.429 40.967 62.616 40.3404 62.8218C38.0863 63.5701 35.7667 64.0377 33.4565 64.5989C29.2008 65.6278 24.9077 66.5163 20.624 67.4049C17.8648 67.9754 15.0682 68.3308 12.2716 68.6956C11.6075 68.7891 10.9154 68.9107 10.1952 69.0136Z" fill="#47292A"/>
<path d="M57.8595 69.5933C57.5883 69.9581 57.2141 69.9955 56.8774 70.089C51.0878 71.6604 45.2982 73.213 39.4525 74.5692C34.5047 75.7196 29.5568 76.8514 24.609 77.9925C24.2536 78.0767 23.9076 78.1888 23.5428 78.0673C23.2902 77.8428 23.2902 77.5154 23.2061 77.2535C23.2715 76.6736 23.6644 76.5333 24.132 76.4305C27.6114 75.6167 31.0814 74.7936 34.5608 73.9706C39.6115 72.764 44.6809 71.6604 49.7877 70.7157C52.2289 70.2667 54.6701 69.8178 57.1112 69.3688C57.3731 69.3127 57.6537 69.2098 57.8595 69.5933Z" fill="#47292A"/>
<path d="M69.5318 54.722C69.8498 55.0213 69.9901 55.3861 69.8124 55.8444C69.4944 56.2092 69.0454 56.2746 68.6058 56.3588C64.9768 57.1164 61.3384 57.8647 57.7094 58.6316C54.071 59.3986 50.414 60.0065 46.7475 60.5958C45.7935 60.7454 45.728 60.7548 45.1107 60.5116C45.2042 59.9691 45.6438 59.8475 46.0647 59.7353C47.6828 59.305 49.3009 58.8842 50.919 58.4539C54.7445 57.4251 58.598 56.4991 62.4982 55.7789C64.584 55.3954 66.6697 55.0306 68.7648 54.6939C69.0174 54.6472 69.2699 54.5911 69.5318 54.722Z" fill="#47292A"/>
<path d="M39.2645 109.887C39.0026 109.494 38.7781 109.092 39.1429 108.465C46.719 106.576 54.4727 105.145 62.2826 103.976C62.5538 103.938 62.8344 103.929 63.087 104.125C62.9841 104.63 62.5538 104.658 62.1984 104.761C60.8235 105.135 59.4486 105.491 58.0737 105.846C52.1812 107.371 46.2513 108.727 40.2746 109.877C39.9473 109.952 39.6199 110.027 39.2645 109.887Z" fill="#47292A"/>
<path d="M52.6023 48.0904C53.0139 48.5207 53.4254 48.9416 53.2383 49.6337C52.9203 49.933 52.5088 50.0078 52.1066 50.1014C49.3006 50.7374 46.4573 51.1863 43.6046 51.5511C41.5001 51.8223 39.4144 52.1871 37.3847 52.8138C36.4214 53.1131 35.4486 53.3375 34.4385 53.4498C34.1579 53.4778 33.8867 53.5153 33.6341 53.3843C33.4845 52.5332 33.8399 51.9252 34.691 51.6727C35.7105 51.3827 36.7394 51.1396 37.7776 50.8964C38.6755 50.6812 39.5734 50.5035 40.4713 50.2978C40.8828 50.2042 41.2756 50.1107 41.7059 50.223C42.0332 50.3071 42.3606 50.1481 42.688 50.0639C45.4191 49.3811 48.1596 48.7077 50.9374 48.2214C51.4799 48.1279 52.0318 48.0156 52.6023 48.0904Z" fill="#47292A"/>
<path d="M51.5272 95.8196C51.761 96.0067 51.8919 96.2498 52.0229 96.4836C51.9013 96.7549 51.6675 96.8671 51.4243 96.9045C49.6004 97.1851 47.8701 97.8398 46.0743 98.242C42.5949 99.009 39.1155 99.804 35.6362 100.58C34.6821 100.795 33.7281 101.001 32.7741 101.207C32.4935 101.263 32.2223 101.263 31.9884 101.207C31.6424 100.945 31.6798 100.58 31.5769 100.3C31.5956 100.019 31.7359 99.804 31.8949 99.5889C31.9604 99.5608 32.0259 99.5141 32.11 99.4954C35.7391 98.6349 39.3587 97.6996 43.0813 97.3067C45.5599 97.0448 47.9636 96.4369 50.3767 95.8944C50.7696 95.7915 51.1437 95.7074 51.5272 95.8196Z" fill="#47292A"/>
<path d="M90.8195 125.104C90.5576 125.441 90.2396 125.666 89.8468 125.731C84.9644 126.545 80.2598 128.069 75.4523 129.22C73.3385 129.725 71.1779 130.043 69.0454 130.445C68.7461 130.501 68.4468 130.557 68.1475 130.613C67.6798 130.295 67.5489 129.893 67.7079 129.416C68.0165 129.164 68.3439 129.107 68.6713 129.023C70.3735 128.574 72.1039 128.284 73.8248 127.929C77.7625 127.134 81.6815 126.264 85.6098 125.422C86.779 125.17 87.9575 124.927 89.136 124.693C89.4353 124.637 89.7439 124.618 90.0526 124.609C90.3612 124.599 90.6605 124.665 90.8195 125.104Z" fill="#47292A"/>
<path d="M63.5365 79.9753C63.3026 80.6581 62.7134 80.7797 62.199 80.9106C60.955 81.2286 59.7017 81.5092 58.4484 81.7805C53.7624 82.8 49.0391 83.6511 44.3064 84.4181C43.7826 84.5022 43.2588 84.5583 42.7912 84.6144C42.548 84.4554 42.5106 84.2777 42.5293 84.0907C42.7818 83.6885 43.2121 83.6791 43.5675 83.5856C47.5239 82.4913 51.5083 81.5279 55.5208 80.6862C57.5131 80.2653 59.5146 79.8911 61.5255 79.5544C62.2177 79.4422 62.9098 79.3674 63.5365 79.9753Z" fill="#47292A"/>
<path d="M123.406 92.0878C123.182 92.5555 122.798 92.7238 122.405 92.8735C121.161 93.3692 119.899 93.8181 118.599 94.1455C114.68 95.1556 110.761 96.1471 106.795 96.9608C106.094 97.1011 105.383 97.2694 104.7 97.3068C104.176 96.6708 104.176 96.6708 104.279 95.9039C104.55 95.5672 104.971 95.5578 105.336 95.483C108.61 94.7721 111.874 94.0332 115.157 93.3879C117.589 92.9109 120.048 92.5274 122.443 91.854C122.817 91.7511 122.826 91.7792 123.406 92.0878Z" fill="#47292A"/>
<path d="M103.727 70.7625C103.877 70.3042 104.232 70.192 104.578 70.0891C105.243 69.8927 105.916 69.6962 106.589 69.5092C110.621 68.4149 114.624 67.1989 118.692 66.2075C120.151 65.8521 121.611 65.4873 123.079 65.1319C123.35 65.0664 123.621 65.0009 123.893 65.1038C124.267 65.665 124.267 65.665 124.155 66.2636C123.809 66.6003 123.332 66.6939 122.883 66.8342C120.918 67.4608 118.898 67.9004 116.878 68.3119C112.697 69.1631 108.516 70.0049 104.335 70.856C104.139 70.8934 103.942 70.9402 103.727 70.7625Z" fill="#47292A"/>
<path d="M93.2704 111.954C93.1301 112.449 92.7279 112.59 92.2696 112.702C89.2391 113.46 86.2087 114.217 83.1877 115.012C80.8681 115.62 78.5111 116.078 76.1728 116.64C75.6677 116.761 75.1346 116.892 74.6482 116.555C74.5641 116.172 74.7511 115.891 74.9288 115.573C75.9858 115.031 77.1549 114.741 78.324 114.47C82.8042 113.413 87.303 112.44 91.858 111.748C92.1012 111.711 92.3444 111.636 92.5969 111.598C92.8962 111.542 93.1581 111.598 93.2704 111.954Z" fill="#47292A"/>
<path d="M61.5726 69.1352C61.3669 68.6675 61.3107 68.2186 61.61 67.7042C66.7262 66.3012 72.0201 65.7119 77.2672 64.8795C77.5946 64.8234 77.9406 64.8327 78.2399 65.0104C78.3989 65.263 78.296 65.4219 78.0716 65.5529C77.66 65.8054 77.1924 65.899 76.7341 66.0112C73.3295 66.8624 69.9156 67.6761 66.4643 68.3588C65.211 68.602 63.9577 68.9013 62.7043 69.1539C62.3676 69.2194 62.0122 69.3222 61.5726 69.1352Z" fill="#47292A"/>
<path d="M128.625 53.0195C129.298 53.6462 129.345 53.8239 128.99 54.516C127.138 54.993 125.258 55.5168 123.331 55.8348C120.301 56.3399 117.326 57.0882 114.361 57.8738C113.819 58.0235 113.276 58.0889 112.743 57.8551C112.771 57.1723 112.865 57.0414 113.51 56.8543C114.015 56.7046 114.548 56.6205 115.053 56.4895C119 55.47 122.938 54.4412 126.885 53.4311C127.456 53.2814 128.026 53.1598 128.625 53.0195Z" fill="#47292A"/>
<path d="M78.838 76.1874C78.5854 76.6831 78.0617 76.7766 77.6034 76.9075C75.5924 77.4874 73.5722 78.0393 71.5612 78.6098C70.2424 78.9746 68.9143 79.3019 67.5674 79.5264C67.3523 79.5638 67.1372 79.6387 66.894 79.5358C66.5854 79.2739 66.576 78.9372 66.6789 78.5911C66.9034 78.2076 67.2868 78.1515 67.6142 78.0299C69.6532 77.3191 71.767 76.9356 73.8715 76.5054C74.8816 76.2996 75.8917 76.0938 76.9112 75.8974C77.2947 75.8226 77.6782 75.7477 78.071 75.7852C78.361 75.8039 78.6977 75.7946 78.838 76.1874Z" fill="#47292A"/>
<path d="M104.905 84.1282C104.624 83.7634 104.409 83.4454 104.746 82.9964C105.186 82.7065 105.756 82.6504 106.28 82.5007C109.46 81.6403 112.603 80.6769 115.82 79.9754C116.307 79.8725 116.755 79.8725 117.195 80.1063C117.326 80.3869 117.176 80.5739 116.98 80.7517C116.653 81.0416 116.25 81.1539 115.848 81.2661C114.08 81.7712 112.313 82.295 110.554 82.8281C108.843 83.3331 107.094 83.7167 105.363 84.1375C105.242 84.1563 105.092 84.1282 104.905 84.1282Z" fill="#47292A"/>
<path d="M67.8945 93.3973C67.7168 93.8276 67.3614 93.9492 66.9779 94.0521C65.762 94.3794 64.518 94.5384 63.2927 94.7909C61.1135 95.2305 58.9155 95.5953 56.7642 96.1845C56.6613 96.2126 56.5491 96.1845 56.4462 96.1845C55.9879 95.4737 55.9879 95.4551 56.3714 94.7162C57.1945 94.3514 58.1204 94.2952 59.0183 94.1456C61.5156 93.734 64.0223 93.3786 66.5289 92.9858C67.0433 92.911 67.5016 92.939 67.8945 93.3973Z" fill="#47292A"/>
<path d="M65.9023 45.3033C66.2296 45.6306 66.557 45.9486 66.4073 46.5379C65.7713 46.9307 64.995 47.0616 64.2468 47.2206C62.2546 47.6509 60.253 48.0157 58.2608 48.4085C57.9334 48.474 57.606 48.5301 57.2413 48.3618C57.1852 47.7351 57.6154 47.4825 58.0924 47.3329C58.8594 47.0897 59.645 46.8746 60.4307 46.6875C61.974 46.3321 63.5453 46.0328 65.0137 45.4155C65.2756 45.3032 65.5469 45.2284 65.9023 45.3033Z" fill="#47292A"/>
<path d="M102.895 60.0064C102.867 59.6416 103.157 59.5201 103.409 59.4452C105.139 58.9028 106.879 58.3883 108.619 57.8739C108.75 57.8365 108.899 57.8552 109.068 57.9581C109.358 58.3135 109.535 58.7251 109.246 59.2114C108.74 59.5014 105.196 60.1374 103.671 60.2122C103.381 60.2216 103.381 60.2215 102.895 60.0064Z" fill="#47292A"/>
<path d="M105.327 47.7726C106.281 47.0805 107.347 46.7905 108.46 46.6221C109.096 46.5286 109.227 46.5847 109.788 46.9963C109.741 47.492 109.32 47.6697 108.956 47.8006C108.095 48.1093 107.207 48.3431 106.318 48.5957C106.047 48.6705 105.766 48.6518 105.495 48.577C105.252 48.3618 105.158 48.128 105.327 47.7726Z" fill="#47292A"/>
<path d="M108.095 38.0266C108.591 38.3914 108.591 38.3914 108.637 38.99C107.683 39.5606 106.58 39.6166 105.513 39.8411C105.223 39.3548 105.467 39.0368 105.7 38.6533C106.439 38.2885 107.29 38.1669 108.095 38.0266Z" fill="#47292A"/>
<path d="M98.0026 53.2161C97.591 53.001 97.75 52.711 97.8062 52.4585C98.0681 51.1771 98.3019 49.8958 98.3393 48.577C98.3487 48.287 98.4048 47.9784 98.2364 47.6323C97.6659 47.9503 97.2917 48.4367 96.7773 48.8014C96.5341 48.5115 96.7212 48.3151 96.8428 48.1187C97.1327 47.6417 97.5256 47.2301 97.6939 46.6876C98.0213 45.6214 98.2271 44.5364 98.0213 43.414C97.9932 43.255 98.0213 43.0867 98.0213 42.8809C98.4048 42.5255 98.7882 42.5255 99.1811 42.8902C99.8545 44.4148 99.9387 46.0142 99.7049 47.6229C99.4617 49.2691 99.0969 50.9059 98.4328 52.4585C98.3206 52.7204 98.2645 53.001 98.0026 53.2161Z" fill="#47292A"/>
<path d="M76.0604 44.6206C76.0043 43.7975 76.1071 43.5824 76.7806 43.4421C78.2022 43.1522 79.6239 42.8715 81.0456 42.6377C81.5226 42.5629 81.9809 42.7126 82.168 43.2644C82.009 43.7321 81.6255 43.9191 81.2233 44.0126C79.5865 44.3774 77.9404 44.6112 76.2661 44.7048C76.2194 44.7048 76.1633 44.6674 76.0604 44.6206Z" fill="#47292A"/>
<path d="M113.623 44.2838C113.174 44.0967 113.071 43.7319 112.987 43.3952C112.594 41.7584 112.435 40.1122 112.725 38.4287C112.959 37.0725 113.791 36.053 114.539 34.9867C114.689 34.781 114.923 34.6688 115.231 34.7903C115.475 35.0709 115.39 35.3889 115.287 35.7163C115.194 36.0063 115.11 36.3055 114.979 36.5768C113.987 38.6438 113.744 40.8418 113.828 43.096C113.838 43.4046 113.81 43.7039 113.782 44.0125C113.772 44.0874 113.697 44.1528 113.623 44.2838Z" fill="#47292A"/>
</svg>
